<svg width="138" height="19" viewBox="0 0 138 19" fill="none" xmlns="http://www.w3.org/2000/svg">
<path d="M31.4062 15H28.5469V6.03906H25.4375V3.72656H34.5156V6.03906H31.4062V15ZM43.7694 12.6875V15H36.0428V3.72656H43.7694V6.03906H38.91V8.28125H43.4803V10.3906H38.91V12.6875H43.7694ZM45.0075 15L48.4528 9.35156V9.28906L45.0153 3.72656H48.3591L50.4294 7.53906H50.4841L52.57 3.72656H55.7497L52.1637 9.32031V9.375L55.7184 15H52.4997L50.3122 11.3438H50.2497L48.0544 15H45.0075ZM67.4566 15H64.5972V10.4609H60.105V15H57.2378V3.72656H60.105V8.14844H64.5972V3.72656H67.4566V15ZM70.6791 5.10156C71.6843 4.05469 73.041 3.53125 74.7494 3.53125C76.4577 3.53125 77.8119 4.05469 78.8119 5.10156C79.8119 6.14844 80.3119 7.57031 80.3119 9.36719C80.3119 11.1641 79.8119 12.5859 78.8119 13.6328C77.8119 14.6745 76.4577 15.1953 74.7494 15.1953C73.0358 15.1953 71.6791 14.6745 70.6791 13.6328C69.6791 12.5859 69.1791 11.1641 69.1791 9.36719C69.1791 7.57031 69.6791 6.14844 70.6791 5.10156ZM76.6712 6.8125C76.1921 6.17708 75.5515 5.85938 74.7494 5.85938C73.9473 5.85938 73.3041 6.17708 72.8197 6.8125C72.3405 7.44271 72.1009 8.29427 72.1009 9.36719C72.1009 10.4349 72.3405 11.2865 72.8197 11.9219C73.2989 12.5521 73.9421 12.8672 74.7494 12.8672C75.5515 12.8672 76.1921 12.5521 76.6712 11.9219C77.1556 11.2865 77.3978 10.4349 77.3978 9.36719C77.3978 8.29427 77.1556 7.44271 76.6712 6.8125ZM86.8156 15.2812C85.399 15.2812 84.2193 14.8906 83.2766 14.1094C82.3339 13.3281 81.7974 12.2995 81.6672 11.0234H84.4484C84.5786 11.6068 84.8547 12.0651 85.2766 12.3984C85.6984 12.7318 86.2089 12.8984 86.8078 12.8984C87.4693 12.8984 88.0266 12.6745 88.4797 12.2266C88.9328 11.7734 89.1958 11.1562 89.2687 10.375H85.1359V8.25H89.2531C89.1698 7.50521 88.9016 6.91667 88.4484 6.48438C88.0005 6.04688 87.4562 5.82812 86.8156 5.82812C86.2219 5.82812 85.7115 6.0026 85.2844 6.35156C84.8573 6.70052 84.5839 7.16667 84.4641 7.75H81.675C81.7531 6.91667 82.024 6.17448 82.4875 5.52344C82.951 4.86719 83.5604 4.35677 84.3156 3.99219C85.0708 3.6276 85.9042 3.44531 86.8156 3.44531C88.4875 3.44531 89.8078 3.97396 90.7766 5.03125C91.7505 6.08333 92.2375 7.52604 92.2375 9.35938C92.2375 11.1979 91.7531 12.6458 90.7844 13.7031C89.8156 14.7552 88.4927 15.2812 86.8156 15.2812ZM103.366 15H100.507V6.03125H97.6553L97.4287 10.4219C97.3923 11.1615 97.2985 11.8125 97.1475 12.375C97.0017 12.9323 96.7881 13.4193 96.5069 13.8359C96.2308 14.2526 95.8689 14.5703 95.4209 14.7891C94.9782 15.0026 94.4522 15.1094 93.8428 15.1094C93.4261 15.1094 93.0902 15.0729 92.835 15V12.5078C93.085 12.5547 93.2777 12.5781 93.4131 12.5781C93.9027 12.5781 94.2491 12.3802 94.4522 11.9844C94.6553 11.5885 94.7751 10.9974 94.8116 10.2109L95.1084 3.72656H103.366V15ZM112.808 15L112.097 12.5234H108.409L107.69 15H104.768L108.558 3.72656H112.065L115.854 15H112.808ZM110.222 6.11719L108.964 10.4609H111.534L110.284 6.11719H110.222ZM121.858 15.2812C120.165 15.2812 118.829 14.7552 117.85 13.7031C116.871 12.6458 116.382 11.1979 116.382 9.35938C116.382 7.52604 116.871 6.08333 117.85 5.03125C118.835 3.97396 120.171 3.44531 121.858 3.44531C123.233 3.44531 124.395 3.84896 125.342 4.65625C126.29 5.45833 126.824 6.48958 126.944 7.75H124.163C124.043 7.16146 123.775 6.69531 123.358 6.35156C122.941 6.0026 122.441 5.82812 121.858 5.82812C121.072 5.82812 120.449 6.14323 119.991 6.77344C119.533 7.40365 119.303 8.26302 119.303 9.35156C119.303 10.4557 119.533 11.3229 119.991 11.9531C120.449 12.5833 121.074 12.8984 121.866 12.8984C122.454 12.8984 122.952 12.7318 123.358 12.3984C123.77 12.0651 124.04 11.6068 124.171 11.0234H126.96C126.824 12.3047 126.29 13.3359 125.358 14.1172C124.431 14.8932 123.264 15.2812 121.858 15.2812ZM133.784 15H130.924V6.03906H127.815V3.72656H136.893V6.03906H133.784V15Z" fill="#333333"/>
<g clip-path="url(#clip0)">
<path d="M15.9996 3.10526C15.9996 4.26797 15.057 5.21053 13.8943 5.21053C12.7316 5.21053 11.7891 4.26797 11.7891 3.10526C11.7891 1.94256 12.7316 1 13.8943 1C15.057 1 15.9996 1.94256 15.9996 3.10526Z" fill="#BDBDBD"/>
<path d="M15.9996 9.00003C15.9996 10.1627 15.057 11.1053 13.8943 11.1053C12.7316 11.1053 11.7891 10.1627 11.7891 9.00003C11.7891 7.83733 12.7316 6.89477 13.8943 6.89477C15.057 6.89477 15.9996 7.83733 15.9996 9.00003Z" fill="#BDBDBD"/>
<path d="M4.21053 14.8948C4.21053 16.0575 3.26797 17 2.10526 17C0.942558 17 0 16.0575 0 14.8948C0 13.7321 0.942558 12.7895 2.10526 12.7895C3.26797 12.7895 4.21053 13.7321 4.21053 14.8948Z" fill="#BDBDBD"/>
<path d="M10.1055 9.00003C10.1055 10.1627 9.16294 11.1053 8.00023 11.1053C6.83753 11.1053 5.89497 10.1627 5.89497 9.00003C5.89497 7.83733 6.83753 6.89477 8.00023 6.89477C9.16294 6.89477 10.1055 7.83733 10.1055 9.00003Z" fill="#BDBDBD"/>
<path d="M10.1055 14.8948C10.1055 16.0575 9.16294 17 8.00023 17C6.83753 17 5.89497 16.0575 5.89497 14.8948C5.89497 13.7321 6.83753 12.7895 8.00023 12.7895C9.16294 12.7895 10.1055 13.7321 10.1055 14.8948Z" fill="#BDBDBD"/>
<path d="M15.9996 14.8948C15.9996 16.0575 15.057 17 13.8943 17C12.7316 17 11.7891 16.0575 11.7891 14.8948C11.7891 13.7321 12.7316 12.7895 13.8943 12.7895C15.057 12.7895 15.9996 13.7321 15.9996 14.8948Z" fill="#BDBDBD"/>
</g>
<defs>
<clipPath id="clip0">
<rect width="16" height="16" fill="white" transform="translate(0 1)"/>
</clipPath>
</defs>
</svg>
