<svg width="116" height="13" viewBox="0 0 116 13" fill="none" xmlns="http://www.w3.org/2000/svg">
<g opacity="0.5">
<mask id="path-1-outside-1" maskUnits="userSpaceOnUse" x="-0.478287" y="-0.478271" width="116" height="13" fill="black">
<rect fill="white" x="-0.478287" y="-0.478271" width="116" height="13"/>
<path d="M4.75864 11.8078H1.87125L3.78572 2.98191H0.521713L1.01602 0.71393H10.4236L9.92927 2.98191H6.66526L4.75864 11.8078ZM17.9085 9.53981L17.422 11.8078H9.66218L12.071 0.71393H19.823L19.3287 2.98191H14.4562L13.9776 5.19606H18.5597L18.1047 7.27184H13.5225L13.0282 9.53981H17.9085ZM18.732 11.8078L23.5967 6.2032L21.1565 0.71393H24.2557L25.7544 4.19662H25.8171L28.5947 0.71393H31.9607L27.0725 6.29546L29.5205 11.8078H26.4213L24.8991 8.28666H24.8364L22.0274 11.8078H18.732ZM41.3444 11.8078H38.4021L39.3828 7.31797H34.9968L34.0239 11.8078H31.0816L33.4904 0.71393H36.4327L35.4754 5.08074H39.8615L40.8108 0.71393H43.7532L41.3444 11.8078ZM50.5084 2.81277C49.9225 2.81277 49.3838 3.00497 48.8921 3.38937C48.4004 3.76865 48.0133 4.28631 47.7308 4.94236C47.4484 5.59841 47.3071 6.3134 47.3071 7.08733C47.3071 7.88176 47.5085 8.5173 47.9113 8.99396C48.3141 9.47062 48.8502 9.70895 49.5198 9.70895C50.1056 9.70895 50.6444 9.51931 51.1361 9.14004C51.6278 8.75563 52.0148 8.23797 52.2973 7.58705C52.585 6.931 52.7288 6.21345 52.7288 5.43439C52.7288 4.63484 52.5275 3.99929 52.1247 3.52776C51.7219 3.0511 51.1832 2.81277 50.5084 2.81277ZM49.4413 12C48.6724 12 47.9688 11.8821 47.3307 11.6463C46.6925 11.4054 46.159 11.0749 45.7301 10.6546C45.3064 10.2343 44.9768 9.73202 44.7415 9.14772C44.5061 8.56343 44.3884 7.93045 44.3884 7.24878C44.3884 6.27496 44.5479 5.36776 44.867 4.5272C45.1861 3.68664 45.6202 2.97678 46.1695 2.39761C46.7239 1.81332 47.3804 1.3546 48.1388 1.02145C48.9025 0.688303 49.7133 0.521729 50.5712 0.521729C51.3558 0.521729 52.0672 0.642175 52.7053 0.883067C53.3487 1.11883 53.8849 1.44942 54.3138 1.87483C54.7427 2.29511 55.0722 2.79739 55.3024 3.38168C55.5325 3.96085 55.6476 4.59127 55.6476 5.27295C55.6476 6.24677 55.4855 7.15396 55.1612 7.99452C54.8369 8.83508 54.3975 9.5475 53.843 10.1318C53.2885 10.7161 52.6295 11.1748 51.8658 11.508C51.1073 11.836 50.2992 12 49.4413 12ZM61.7202 12C60.3184 12 59.1755 11.6207 58.2915 10.8622C57.4075 10.0985 56.9524 9.09903 56.9262 7.86382H59.7273C59.7849 8.41223 60.0019 8.84533 60.3785 9.1631C60.7604 9.47575 61.2547 9.63207 61.8615 9.63207C62.5467 9.63207 63.1325 9.42193 63.619 9.00165C64.1107 8.58137 64.4507 7.99195 64.639 7.2334H60.4727L60.9356 5.18838H64.8979C64.8979 4.4657 64.707 3.89935 64.3252 3.48932C63.9485 3.07929 63.4255 2.87427 62.7559 2.87427C62.2119 2.87427 61.7229 3.03828 61.2887 3.36631C60.8598 3.69433 60.5433 4.1428 60.3393 4.71172H57.5304C57.8285 3.40987 58.4641 2.38736 59.437 1.64418C60.4099 0.89588 61.5999 0.521729 63.007 0.521729C64.5344 0.521729 65.7244 1.00351 66.577 1.96708C67.4296 2.92553 67.8115 4.21199 67.7226 5.82649C67.6702 7.05145 67.3878 8.1329 66.8752 9.07084C66.3626 10.0037 65.659 10.7263 64.7646 11.2389C63.8753 11.7463 62.8605 12 61.7202 12ZM78.189 11.8078H75.3095L77.2161 2.98191H74.3523L73.191 7.30259C72.987 8.0714 72.7621 8.72488 72.5163 9.26305C72.2756 9.80121 71.9749 10.2779 71.614 10.693C71.2583 11.1082 70.8293 11.4157 70.3272 11.6156C69.8303 11.8155 69.2496 11.9154 68.5853 11.9154C68.1564 11.9154 67.8269 11.8795 67.5967 11.8078L68.1303 9.38605C68.3238 9.42706 68.5121 9.44756 68.6952 9.44756C69.1555 9.44756 69.5373 9.24254 69.8407 8.83251C70.1493 8.42248 70.403 7.84332 70.6018 7.09501L72.2887 0.71393H80.5978L78.189 11.8078ZM87.1255 3.18948L84.96 7.34103H87.5021L87.1883 3.18948H87.1255ZM87.8081 11.8078L87.6198 9.37068H83.9243L82.6453 11.8078H79.601L85.9093 0.71393H89.4323L90.7347 11.8078H87.8081ZM100.628 4.97311V4.68865C100.608 4.15049 100.401 3.70715 100.009 3.35862C99.6215 3.00497 99.1377 2.82814 98.5571 2.82814C97.6207 2.82814 96.8544 3.23305 96.2581 4.04286C95.6618 4.84754 95.3637 5.8803 95.3637 7.14114C95.3637 7.92532 95.5546 8.54293 95.9364 8.99396C96.3235 9.445 96.8492 9.67051 97.5135 9.67051C98.1151 9.67051 98.6407 9.50394 99.0906 9.17079C99.5457 8.83764 99.8674 8.38148 100.056 7.80231H102.857C102.632 9.05803 102.012 10.0729 100.997 10.8468C99.9877 11.6156 98.7663 12 97.333 12C95.837 12 94.6418 11.5746 93.7474 10.7238C92.8529 9.86784 92.4057 8.72744 92.4057 7.30259C92.4057 5.95974 92.6698 4.77578 93.1981 3.75071C93.7264 2.72051 94.477 1.92608 95.45 1.36741C96.4229 0.803624 97.5475 0.521729 98.8238 0.521729C100.158 0.521729 101.259 0.898443 102.127 1.65187C102.995 2.40018 103.437 3.36375 103.453 4.54258C103.458 4.68097 103.45 4.82448 103.43 4.97311H100.628ZM109.118 11.8078H106.23L108.145 2.98191H104.881L105.375 0.71393H114.783L114.288 2.98191H111.024L109.118 11.8078Z"/>
</mask>
<path d="M4.75864 11.8078H1.87125L3.78572 2.98191H0.521713L1.01602 0.71393H10.4236L9.92927 2.98191H6.66526L4.75864 11.8078ZM17.9085 9.53981L17.422 11.8078H9.66218L12.071 0.71393H19.823L19.3287 2.98191H14.4562L13.9776 5.19606H18.5597L18.1047 7.27184H13.5225L13.0282 9.53981H17.9085ZM18.732 11.8078L23.5967 6.2032L21.1565 0.71393H24.2557L25.7544 4.19662H25.8171L28.5947 0.71393H31.9607L27.0725 6.29546L29.5205 11.8078H26.4213L24.8991 8.28666H24.8364L22.0274 11.8078H18.732ZM41.3444 11.8078H38.4021L39.3828 7.31797H34.9968L34.0239 11.8078H31.0816L33.4904 0.71393H36.4327L35.4754 5.08074H39.8615L40.8108 0.71393H43.7532L41.3444 11.8078ZM50.5084 2.81277C49.9225 2.81277 49.3838 3.00497 48.8921 3.38937C48.4004 3.76865 48.0133 4.28631 47.7308 4.94236C47.4484 5.59841 47.3071 6.3134 47.3071 7.08733C47.3071 7.88176 47.5085 8.5173 47.9113 8.99396C48.3141 9.47062 48.8502 9.70895 49.5198 9.70895C50.1056 9.70895 50.6444 9.51931 51.1361 9.14004C51.6278 8.75563 52.0148 8.23797 52.2973 7.58705C52.585 6.931 52.7288 6.21345 52.7288 5.43439C52.7288 4.63484 52.5275 3.99929 52.1247 3.52776C51.7219 3.0511 51.1832 2.81277 50.5084 2.81277ZM49.4413 12C48.6724 12 47.9688 11.8821 47.3307 11.6463C46.6925 11.4054 46.159 11.0749 45.7301 10.6546C45.3064 10.2343 44.9768 9.73202 44.7415 9.14772C44.5061 8.56343 44.3884 7.93045 44.3884 7.24878C44.3884 6.27496 44.5479 5.36776 44.867 4.5272C45.1861 3.68664 45.6202 2.97678 46.1695 2.39761C46.7239 1.81332 47.3804 1.3546 48.1388 1.02145C48.9025 0.688303 49.7133 0.521729 50.5712 0.521729C51.3558 0.521729 52.0672 0.642175 52.7053 0.883067C53.3487 1.11883 53.8849 1.44942 54.3138 1.87483C54.7427 2.29511 55.0722 2.79739 55.3024 3.38168C55.5325 3.96085 55.6476 4.59127 55.6476 5.27295C55.6476 6.24677 55.4855 7.15396 55.1612 7.99452C54.8369 8.83508 54.3975 9.5475 53.843 10.1318C53.2885 10.7161 52.6295 11.1748 51.8658 11.508C51.1073 11.836 50.2992 12 49.4413 12ZM61.7202 12C60.3184 12 59.1755 11.6207 58.2915 10.8622C57.4075 10.0985 56.9524 9.09903 56.9262 7.86382H59.7273C59.7849 8.41223 60.0019 8.84533 60.3785 9.1631C60.7604 9.47575 61.2547 9.63207 61.8615 9.63207C62.5467 9.63207 63.1325 9.42193 63.619 9.00165C64.1107 8.58137 64.4507 7.99195 64.639 7.2334H60.4727L60.9356 5.18838H64.8979C64.8979 4.4657 64.707 3.89935 64.3252 3.48932C63.9485 3.07929 63.4255 2.87427 62.7559 2.87427C62.2119 2.87427 61.7229 3.03828 61.2887 3.36631C60.8598 3.69433 60.5433 4.1428 60.3393 4.71172H57.5304C57.8285 3.40987 58.4641 2.38736 59.437 1.64418C60.4099 0.89588 61.5999 0.521729 63.007 0.521729C64.5344 0.521729 65.7244 1.00351 66.577 1.96708C67.4296 2.92553 67.8115 4.21199 67.7226 5.82649C67.6702 7.05145 67.3878 8.1329 66.8752 9.07084C66.3626 10.0037 65.659 10.7263 64.7646 11.2389C63.8753 11.7463 62.8605 12 61.7202 12ZM78.189 11.8078H75.3095L77.2161 2.98191H74.3523L73.191 7.30259C72.987 8.0714 72.7621 8.72488 72.5163 9.26305C72.2756 9.80121 71.9749 10.2779 71.614 10.693C71.2583 11.1082 70.8293 11.4157 70.3272 11.6156C69.8303 11.8155 69.2496 11.9154 68.5853 11.9154C68.1564 11.9154 67.8269 11.8795 67.5967 11.8078L68.1303 9.38605C68.3238 9.42706 68.5121 9.44756 68.6952 9.44756C69.1555 9.44756 69.5373 9.24254 69.8407 8.83251C70.1493 8.42248 70.403 7.84332 70.6018 7.09501L72.2887 0.71393H80.5978L78.189 11.8078ZM87.1255 3.18948L84.96 7.34103H87.5021L87.1883 3.18948H87.1255ZM87.8081 11.8078L87.6198 9.37068H83.9243L82.6453 11.8078H79.601L85.9093 0.71393H89.4323L90.7347 11.8078H87.8081ZM100.628 4.97311V4.68865C100.608 4.15049 100.401 3.70715 100.009 3.35862C99.6215 3.00497 99.1377 2.82814 98.5571 2.82814C97.6207 2.82814 96.8544 3.23305 96.2581 4.04286C95.6618 4.84754 95.3637 5.8803 95.3637 7.14114C95.3637 7.92532 95.5546 8.54293 95.9364 8.99396C96.3235 9.445 96.8492 9.67051 97.5135 9.67051C98.1151 9.67051 98.6407 9.50394 99.0906 9.17079C99.5457 8.83764 99.8674 8.38148 100.056 7.80231H102.857C102.632 9.05803 102.012 10.0729 100.997 10.8468C99.9877 11.6156 98.7663 12 97.333 12C95.837 12 94.6418 11.5746 93.7474 10.7238C92.8529 9.86784 92.4057 8.72744 92.4057 7.30259C92.4057 5.95974 92.6698 4.77578 93.1981 3.75071C93.7264 2.72051 94.477 1.92608 95.45 1.36741C96.4229 0.803624 97.5475 0.521729 98.8238 0.521729C100.158 0.521729 101.259 0.898443 102.127 1.65187C102.995 2.40018 103.437 3.36375 103.453 4.54258C103.458 4.68097 103.45 4.82448 103.43 4.97311H100.628ZM109.118 11.8078H106.23L108.145 2.98191H104.881L105.375 0.71393H114.783L114.288 2.98191H111.024L109.118 11.8078Z" stroke="#212A40" stroke-width="0.66" mask="url(#path-1-outside-1)"/>
</g>
<path d="M4.23693 11.2861H1.34954L3.26401 2.46018H0L0.494308 0.192201H9.90186L9.40755 2.46018H6.14355L4.23693 11.2861Z" fill="#212A40"/>
<path d="M17.3868 9.01809L16.9003 11.2861H9.14047L11.5492 0.192201H19.3013L18.8069 2.46018H13.9345L13.4559 4.67434H18.038L17.5829 6.75011H13.0008L12.5065 9.01809H17.3868Z" fill="#212A40"/>
<path d="M18.2103 11.2861L23.0749 5.68147L20.6348 0.192201H23.734L25.2326 3.67489H25.2954L28.073 0.192201H31.439L26.5508 5.77373L28.9988 11.2861H25.8996L24.3774 7.76493H24.3146L21.5057 11.2861H18.2103Z" fill="#212A40"/>
<path d="M40.8227 11.2861H37.8804L38.8611 6.79624H34.4751L33.5022 11.2861H30.5599L32.9687 0.192201H35.911L34.9537 4.55902H39.3397L40.2891 0.192201H43.2314L40.8227 11.2861Z" fill="#212A40"/>
<path d="M49.9867 2.29104C49.4008 2.29104 48.8621 2.48324 48.3704 2.86764C47.8787 3.24692 47.4916 3.76458 47.2091 4.42063C46.9267 5.07668 46.7854 5.79167 46.7854 6.5656C46.7854 7.36003 46.9868 7.99558 47.3896 8.47223C47.7924 8.94889 48.3285 9.18722 48.9981 9.18722C49.5839 9.18722 50.1227 8.99759 50.6144 8.61831C51.1061 8.23391 51.4931 7.71624 51.7756 7.06532C52.0633 6.40927 52.2071 5.69172 52.2071 4.91267C52.2071 4.11311 52.0058 3.47756 51.603 3.00603C51.2002 2.52937 50.6614 2.29104 49.9867 2.29104ZM48.9196 11.4783C48.1507 11.4783 47.4471 11.3604 46.809 11.1246C46.1708 10.8837 45.6373 10.5531 45.2084 10.1329C44.7847 9.71257 44.4551 9.21029 44.2197 8.626C43.9844 8.0417 43.8667 7.40872 43.8667 6.72705C43.8667 5.75323 44.0262 4.84604 44.3453 4.00548C44.6644 3.16492 45.0985 2.45505 45.6477 1.87589C46.2022 1.29159 46.8587 0.832872 47.6171 0.499723C48.3808 0.166574 49.1916 0 50.0494 0C50.8341 0 51.5454 0.120446 52.1836 0.361338C52.827 0.597105 53.3631 0.927692 53.7921 1.3531C54.221 1.77338 54.5505 2.27566 54.7807 2.85996C55.0108 3.43912 55.1259 4.06954 55.1259 4.75122C55.1259 5.72504 54.9638 6.63223 54.6394 7.47279C54.3151 8.31335 53.8758 9.02577 53.3213 9.61007C52.7668 10.1944 52.1078 10.6531 51.3441 10.9862C50.5856 11.3143 49.7774 11.4783 48.9196 11.4783Z" fill="#212A40"/>
<path d="M61.1985 11.4783C59.7967 11.4783 58.6538 11.099 57.7697 10.3404C56.8857 9.57675 56.4307 8.5773 56.4045 7.34209H59.2056C59.2631 7.89051 59.4802 8.3236 59.8568 8.64137C60.2387 8.95402 60.733 9.11034 61.3398 9.11034C62.025 9.11034 62.6108 8.9002 63.0973 8.47992C63.589 8.05964 63.929 7.47022 64.1173 6.71167H59.951L60.4139 4.66665H64.3762C64.3762 3.94397 64.1853 3.37762 63.8035 2.96759C63.4268 2.55756 62.9038 2.35254 62.2342 2.35254C61.6902 2.35254 61.2011 2.51656 60.767 2.84458C60.3381 3.1726 60.0216 3.62107 59.8176 4.18999H57.0087C57.3068 2.88815 57.9424 1.86563 58.9153 1.12246C59.8882 0.374152 61.0782 0 62.4853 0C64.0127 0 65.2027 0.481785 66.0553 1.44535C66.9079 2.4038 67.2898 3.69027 67.2008 5.30476C67.1485 6.52972 66.8661 7.61117 66.3535 8.54912C65.8408 9.48193 65.1373 10.2046 64.2428 10.7171C63.3536 11.2246 62.3388 11.4783 61.1985 11.4783Z" fill="#212A40"/>
<path d="M77.6673 11.2861H74.7878L76.6944 2.46018H73.8306L72.6693 6.78086C72.4653 7.54967 72.2404 8.20315 71.9945 8.74132C71.7539 9.27948 71.4532 9.75614 71.0922 10.1713C70.7365 10.5864 70.3076 10.894 69.8055 11.0939C69.3085 11.2938 68.7279 11.3937 68.0636 11.3937C67.6347 11.3937 67.3052 11.3578 67.075 11.2861L67.6085 8.86433C67.8021 8.90533 67.9904 8.92583 68.1735 8.92583C68.6338 8.92583 69.0156 8.72081 69.319 8.31079C69.6276 7.90076 69.8813 7.32159 70.0801 6.57329L71.767 0.192201H80.0761L77.6673 11.2861Z" fill="#212A40"/>
<path d="M86.6038 2.66775L84.4382 6.8193H86.9804L86.6666 2.66775H86.6038ZM87.2864 11.2861L87.0981 8.84895H83.4026L82.1236 11.2861H79.0793L85.3876 0.192201H88.9106L90.213 11.2861H87.2864Z" fill="#212A40"/>
<path d="M100.107 4.45138V4.16692C100.086 3.62876 99.8792 3.18542 99.4869 2.83689C99.0998 2.48324 98.616 2.30642 98.0353 2.30642C97.099 2.30642 96.3327 2.71132 95.7364 3.52113C95.1401 4.32581 94.8419 5.35857 94.8419 6.61941C94.8419 7.4036 95.0329 8.0212 95.4147 8.47223C95.8018 8.92327 96.3275 9.14878 96.9918 9.14878C97.5933 9.14878 98.119 8.98221 98.5689 8.64906C99.024 8.31591 99.3457 7.85975 99.534 7.28059H102.335C102.11 8.5363 101.49 9.55112 100.475 10.3251C99.466 11.0939 98.2446 11.4783 96.8113 11.4783C95.3153 11.4783 94.1201 11.0529 93.2256 10.202C92.3312 9.34611 91.8839 8.20572 91.8839 6.78086C91.8839 5.43802 92.1481 4.25406 92.6764 3.22898C93.2047 2.19878 93.9553 1.40435 94.9283 0.845686C95.9012 0.281895 97.0258 0 98.3021 0C99.636 0 100.737 0.376715 101.605 1.13014C102.474 1.87845 102.916 2.84202 102.931 4.02085C102.937 4.15924 102.929 4.30275 102.908 4.45138H100.107Z" fill="#212A40"/>
<path d="M108.596 11.2861H105.709L107.623 2.46018H104.359L104.853 0.192201H114.261L113.767 2.46018H110.503L108.596 11.2861Z" fill="#212A40"/>
</svg>
