<svg xmlns="http://www.w3.org/2000/svg"  viewBox="0 0 18 18" id="icon-share-odnoklassniki">
	<path fill-rule="evenodd" clip-rule="evenodd" d="M8.977 10c-2.736-.01-4.98-2.274-4.963-5.011A5.011 5.011 0 019.037 0c2.768.007 4.99 2.27 4.976 5.065C14 7.795 11.742 10.009 8.978 10zm2.486-5.004a2.437 2.437 0 00-2.446-2.442 2.44 2.44 0 00-2.452 2.471A2.437 2.437 0 009.03 7.448a2.432 2.432 0 002.433-2.452z"></path>
  <path d="M3.874 12.51c.763.59 1.608.958 2.522 1.189l-1.981 2.048c-.231.239-.397.505-.414.853-.024.515.286 1.027.771 1.27.457.23.926.158 1.32-.244.878-.894 1.75-1.793 2.609-2.706.215-.228.332-.277.575-.015.562.608 1.14 1.2 1.716 1.793.282.29.563.578.843.87.222.23.473.396.795.42.507.035 1.024-.3 1.256-.81.211-.467.13-.964-.253-1.366a626.286 626.286 0 00-2.054-2.132c.342-.078.674-.166.916-.26.827-.317 1.571-.772 2.19-1.401.403-.41.407-.926.08-1.454-.286-.463-.784-.657-1.318-.522a2.05 2.05 0 00-.733.376c-2.238 1.49-5.3 1.448-7.528-.068a2.423 2.423 0 00-.343-.201c-.619-.289-1.213-.154-1.568.349-.414.587-.361 1.157.162 1.655.109.103.228.195.348.287l.09.068z"></path>
</svg>
