<svg viewBox="0 0 32 32" xmlns="http://www.w3.org/2000/svg" id="icon-share">
    <path fill-rule="evenodd" clip-rule="evenodd" d="M14.1539 5.0926C14.4466 4.93767 14.7946 4.97953 15.0495 5.20035L26.6784 15.2726C26.8815 15.4486 27 15.7165 27 16C27 16.2835 26.8815 16.5514 26.6784 16.7274L15.0495 26.7996C14.7946 27.0205 14.4466 27.0623 14.1539 26.9074C13.8612 26.7525 13.6753 26.428 13.6753 26.0723V21.2468C12.9691 21.3704 12.2101 21.6355 11.4294 22.0039C10.3332 22.5213 9.24385 23.2186 8.27061 23.9285C7.29952 24.6368 6.45861 25.3469 5.8602 25.8803C5.56146 26.1466 5.32431 26.3679 5.16287 26.5216C5.08218 26.5984 5.02049 26.6582 4.97955 26.6983L4.93397 26.7431L4.92329 26.7538L4.92105 26.756C4.67318 27.0045 4.31424 27.0696 4.0065 26.9214C3.69871 26.7733 3.5 26.4402 3.5 26.0723H4.34794C3.5 26.0723 3.5 26.0712 3.5 26.0712L3.5 26.0699L3.50001 26.0666L3.50007 26.0568L3.50042 26.0253C3.50081 25.9991 3.50154 25.9624 3.50295 25.9159C3.50575 25.8228 3.51124 25.6902 3.52194 25.5229C3.54334 25.1885 3.58568 24.714 3.66952 24.1374C3.83689 22.9864 4.17151 21.4158 4.843 19.7366C6.14144 16.4895 8.70156 12.844 13.6753 11.0725V5.92772C13.6753 5.57196 13.8612 5.24753 14.1539 5.0926ZM5.43271 23.882C5.97072 23.4254 6.61595 22.9055 7.32991 22.3847C8.35538 21.6367 9.53726 20.8763 10.7577 20.3003C11.9705 19.7279 13.2721 19.3132 14.5232 19.3132C14.9915 19.3132 15.3711 19.7286 15.3711 20.241V24.1546L24.786 16L15.3711 7.84539V11.759C15.3711 12.1732 15.1202 12.5373 14.7561 12.6511C9.96056 14.1501 7.58959 17.4971 6.39669 20.4803C5.89617 21.7319 5.6035 22.921 5.43271 23.882Z"></path>
</svg>