<svg width="29" height="29" viewBox="0 0 29 29" fill="none" xmlns="http://www.w3.org/2000/svg">
<path d="M0 5C0 2.23858 2.23858 0 5 0H24C26.7614 0 29 2.23858 29 5V24C29 26.7614 26.7614 29 24 29H5C2.23858 29 0 26.7614 0 24V5Z" fill="url(#paint0_linear)"/>
<path d="M19.048 16.4598L19.0405 16.5223C17.208 15.609 17.0163 15.4873 16.7797 15.8423C16.6155 16.0881 16.1372 16.6456 15.993 16.8106C15.8472 16.9731 15.7022 16.9856 15.4547 16.8731C15.2047 16.7481 14.4022 16.4856 13.4522 15.6356C12.7123 14.9732 12.2156 14.1607 12.0689 13.9107C11.8248 13.489 12.3356 13.429 12.8006 12.549C12.8839 12.374 12.8414 12.2365 12.7798 12.1124C12.7173 11.9874 12.2198 10.7624 12.0114 10.2741C11.8114 9.78741 11.6056 9.84908 11.4514 9.84908C10.9715 9.80741 10.6206 9.81408 10.3115 10.1357C8.96649 11.614 9.30565 13.139 10.4565 14.7607C12.7181 17.7206 13.9231 18.2656 16.1264 19.0222C16.7213 19.2114 17.2638 19.1847 17.693 19.1231C18.1713 19.0472 19.1655 18.5223 19.373 17.9348C19.5855 17.3473 19.5855 16.8598 19.523 16.7473C19.4613 16.6348 19.298 16.5723 19.048 16.4598Z" fill="white"/>
<path d="M21.6004 7.37448C15.193 1.18042 4.58905 5.67284 4.58488 14.411C4.58488 16.1576 5.04237 17.861 5.91402 19.3651L4.50072 24.5L9.77979 23.1234C16.3672 26.6816 24.497 21.9567 24.5004 14.416C24.5004 11.7694 23.467 9.27861 21.5879 7.40697L21.6004 7.37448ZM22.8354 14.3885C22.8304 20.7492 15.848 24.7217 10.3256 21.4751L10.0256 21.2967L6.90067 22.1092L7.73816 19.0718L7.53899 18.7593C4.10239 13.2885 8.05065 6.13866 14.5605 6.13866C16.7722 6.13866 18.848 7.00115 20.4113 8.56362C21.9737 10.1128 22.8354 12.1886 22.8354 14.3885Z" fill="white"/>
<defs>
<linearGradient id="paint0_linear" x1="14.5" y1="0" x2="14.5" y2="29" gradientUnits="userSpaceOnUse">
<stop stop-color="#7DE777"/>
<stop offset="1" stop-color="#5CC34D"/>
</linearGradient>
</defs>
</svg>
