<svg xmlns="http://www.w3.org/2000/svg"><defs><linearGradient id="a" x1="1.947" y1="27.111" x2="28.818" y2="3.85" gradientUnits="userSpaceOnUse"><stop stop-color="#FD5"/><stop offset=".5" stop-color="#FF543E"/><stop offset="1" stop-color="#C837AB"/></linearGradient><linearGradient id="a" x1="10.877" y1="1.209" x2="3.627" y2="18.125" gradientUnits="userSpaceOnUse"><stop stop-color="#37AEE2"/><stop offset="1" stop-color="#1E96C8"/></linearGradient><linearGradient id="a" x1="14.5" x2="14.5" y2="29" gradientUnits="userSpaceOnUse"><stop stop-color="#7DE777"/><stop offset="1" stop-color="#5CC34D"/></linearGradient></defs><symbol id="icon-back" viewBox="0 0 17 14"><path d="M6.707 0l1.414 1.414-4.293 4.293H17v2H3.828L8.121 12l-1.414 1.414L0 6.707 6.707 0z" fill="#333"/></symbol><symbol id="icon-burger" viewBox="0 0 19 13"><path d="M.5 12a.5.5 0 0 0 .5.5h16.966a.5.5 0 0 0 .5-.5v-1a.5.5 0 0 0-.5-.5H1a.5.5 0 0 0-.5.5v1zm0-5a.5.5 0 0 0 .5.5h17a.5.5 0 0 0 .5-.5V6a.5.5 0 0 0-.5-.5H1a.5.5 0 0 0-.5.5v1zm0-5a.5.5 0 0 0 .5.5h17a.5.5 0 0 0 .5-.5V1a.5.5 0 0 0-.5-.5H1a.5.5 0 0 0-.5.5v1z" fill="#212A40"/></symbol><symbol id="icon-close" viewBox="0 0 14 14"><path d="M12 0l1.414 1.414-5.293 5.293L13.414 12 12 13.414 6.707 8.121l-5.293 5.293L0 12l5.293-5.293L0 1.414 1.414 0l5.293 5.293L12 0z" fill="#333"/></symbol><symbol id="icon-fb" viewBox="0 0 29 29"><path d="M0 5a5 5 0 0 1 5-5h19a5 5 0 0 1 5 5v19a5 5 0 0 1-5 5H5a5 5 0 0 1-5-5V5z" fill="#1877F2"/><path d="M17.357 8.489H19V5.627a21.22 21.22 0 0 0-2.394-.127c-2.369 0-3.992 1.49-3.992 4.23v2.52H10v3.2h2.614v8.05h3.206v-8.05h2.508l.399-3.2h-2.908v-2.204c0-.924.25-1.557 1.538-1.557z" fill="#fff"/></symbol><symbol id="icon-inst" viewBox="0 0 29 29"><path d="M0 5a5 5 0 0 1 5-5h19a5 5 0 0 1 5 5v19a5 5 0 0 1-5 5H5a5 5 0 0 1-5-5V5z" fill="url(#a)"/><path d="M24.448 10.38c-.047-1.063-.22-1.793-.465-2.426a4.881 4.881 0 0 0-1.157-1.774 4.922 4.922 0 0 0-1.77-1.153c-.637-.246-1.363-.418-2.426-.465-1.07-.05-1.41-.062-4.126-.062-2.715 0-3.055.012-4.122.058-1.062.047-1.793.22-2.426.465A4.88 4.88 0 0 0 6.182 6.18 4.924 4.924 0 0 0 5.03 7.95c-.247.637-.418 1.363-.465 2.426-.051 1.07-.063 1.41-.063 4.126 0 2.715.012 3.055.059 4.122.047 1.063.219 1.793.465 2.426a4.931 4.931 0 0 0 1.156 1.774c.5.508 1.106.902 1.77 1.152.637.247 1.364.418 2.427.465 1.066.047 1.406.059 4.121.059 2.716 0 3.056-.012 4.122-.059 1.063-.047 1.794-.218 2.426-.465a5.116 5.116 0 0 0 2.927-2.926c.246-.637.418-1.364.465-2.426.047-1.067.058-1.407.058-4.122 0-2.716-.004-3.055-.05-4.122zm-1.802 8.166c-.043.976-.207 1.504-.343 1.855a3.317 3.317 0 0 1-1.9 1.9c-.35.136-.882.3-1.855.343-1.055.047-1.371.059-4.04.059-2.668 0-2.989-.012-4.04-.059-.977-.043-1.504-.207-1.856-.344a3.077 3.077 0 0 1-1.148-.746 3.11 3.11 0 0 1-.747-1.149c-.136-.351-.3-.883-.343-1.855-.047-1.055-.059-1.372-.059-4.04 0-2.669.012-2.99.059-4.04.043-.977.207-1.504.343-1.856a3.04 3.04 0 0 1 .75-1.149 3.105 3.105 0 0 1 1.15-.746c.351-.137.882-.3 1.855-.344 1.055-.047 1.372-.058 4.04-.058 2.672 0 2.989.011 4.04.058.977.043 1.504.207 1.856.344.433.16.828.414 1.148.746.332.325.586.715.747 1.149.136.352.3.883.343 1.856.047 1.055.06 1.371.06 4.04 0 2.668-.013 2.98-.06 4.036z" fill="#fff"/><path d="M14.506 9.364a5.14 5.14 0 0 0-5.138 5.138 5.139 5.139 0 1 0 5.138-5.138zm0 8.47a3.333 3.333 0 1 1 0-6.666 3.333 3.333 0 0 1 0 6.666zM21.047 9.16a1.2 1.2 0 1 1-2.4 0 1.2 1.2 0 0 1 2.4 0z" fill="#fff"/></symbol><symbol id="icon-mail" viewBox="0 0 20 14"><path d="M19.334 1.275L13.57 7l5.763 5.725c.104-.217.167-.458.167-.715V1.99c0-.256-.063-.497-.167-.715zM17.83.32H2.17a1.65 1.65 0 0 0-.715.168L8.82 7.815c.651.652 1.71.652 2.361 0L18.546.488A1.65 1.65 0 0 0 17.83.32zM.668 1.275a1.65 1.65 0 0 0-.167.716V12.01c0 .257.063.498.167.715L6.43 7 .668 1.275z" fill="#212A40"/><path d="M12.784 7.787l-.816.815a2.786 2.786 0 0 1-3.935 0l-.816-.815-5.762 5.725c.218.104.459.167.716.167h15.66c.256 0 .497-.063.715-.167l-5.762-5.725z" fill="#212A40"/></symbol><symbol id="icon-phone" viewBox="0 0 18 16"><path fill-rule="evenodd" clip-rule="evenodd" d="M17.562 12.505c.407.698-.349 3.432-2.908 3.49-1.57.058-2.56-.407-3.024-.582-1.106-.349-2.094-.93-3.025-1.512-1.629-1.047-2.966-2.21-4.42-3.664C1.45 7.387.52 4.886.345 3.14.172 1.396 1.976 0 3.255 0c.582 0 .872.407 1.396 1.163.64.873 1.454 2.094 1.745 2.676.29.581.116 1.338-.524 2.326A.963.963 0 0 0 5.93 7.33c.465.64 1.105 1.28 1.803 1.919.756.698 1.57 1.28 2.384 1.803a.962.962 0 0 0 1.105 0l.815-.523c.581-.408 1.337-.408 1.92-.117.697.35 1.22.582 1.453.698 1.222.64 1.978 1.105 2.152 1.396z" fill="#212A40"/></symbol><symbol id="icon-right" viewBox="0 0 17 14"><path d="M10.293 0L8.879 1.414l4.293 4.293H0v2h13.172L8.879 12l1.414 1.414L17 6.707 10.293 0z" fill="#3D81C6"/></symbol><symbol id="icon-tg" viewBox="0 0 29 29"><path d="M0 5a5 5 0 0 1 5-5h19a5 5 0 0 1 5 5v19a5 5 0 0 1-5 5H5a5 5 0 0 1-5-5V5z" fill="url(#a)"/><path d="M5.304 15.012c1.73-.952 3.66-1.747 5.464-2.546 3.103-1.31 6.218-2.596 9.365-3.793.612-.204 1.712-.403 1.82.504-.06 1.284-.302 2.561-.469 3.838-.423 2.807-.912 5.606-1.388 8.404-.165.932-1.332 1.415-2.08.818-1.795-1.212-3.605-2.414-5.378-3.655-.58-.59-.042-1.437.477-1.858 1.479-1.458 3.047-2.696 4.449-4.23.378-.912-.74-.143-1.108.093-2.024 1.395-4 2.876-6.134 4.102-1.09.6-2.361.087-3.451-.248-.978-.404-2.41-.812-1.567-1.429z" fill="#fff"/></symbol><symbol id="icon-vk" viewBox="0 0 29 29"><path d="M0 5a5 5 0 0 1 5-5h19a5 5 0 0 1 5 5v19a5 5 0 0 1-5 5H5a5 5 0 0 1-5-5V5z" fill="#2787F5"/><path d="M20.437 15.271c-.291-.368-.208-.531 0-.86.004-.003 2.406-3.323 2.653-4.448l.002-.001c.123-.41 0-.712-.595-.712H20.53c-.5 0-.732.259-.856.548 0 0-1.002 2.399-2.42 3.954-.457.449-.668.593-.918.593-.123 0-.314-.144-.314-.555V9.963c0-.492-.14-.712-.555-.712H12.37c-.314 0-.5.23-.5.443 0 .467.708.574.782 1.886v2.848c0 .624-.114.739-.365.739-.669 0-2.293-2.408-3.255-5.165-.194-.534-.384-.75-.889-.75H6.176c-.562 0-.675.258-.675.548 0 .511.669 3.055 3.11 6.415 1.628 2.293 3.92 3.536 6.005 3.536 1.253 0 1.406-.276 1.406-.75 0-2.192-.113-2.4.515-2.4.29 0 .792.145 1.962 1.251 1.337 1.312 1.557 1.899 2.305 1.899h1.968c.561 0 .846-.276.682-.82-.374-1.146-2.903-3.502-3.017-3.659z" fill="#fff"/></symbol><symbol id="icon-warning" viewBox="0 0 14 14"><path d="M6.993 13.992A6.667 6.667 0 1 1 7.006.66a6.667 6.667 0 0 1-.013 13.333zM1.666 7.44a5.333 5.333 0 1 0 0-.114v.114zm6 3.219H6.333V9.326h1.333v1.333zm0-2.667H6.333v-4h1.333v4z" fill="#202020"/></symbol><symbol id="icon-wp" viewBox="0 0 29 29"><path d="M0 5a5 5 0 0 1 5-5h19a5 5 0 0 1 5 5v19a5 5 0 0 1-5 5H5a5 5 0 0 1-5-5V5z" fill="url(#a)"/><path d="M19.048 16.46l-.007.062c-1.833-.913-2.025-1.035-2.261-.68-.165.246-.643.804-.787.969-.146.162-.29.175-.538.062-.25-.125-1.053-.387-2.003-1.237-.74-.663-1.236-1.475-1.383-1.725-.244-.422.267-.482.732-1.362.083-.175.04-.313-.021-.437-.063-.125-.56-1.35-.769-1.838-.2-.487-.405-.425-.56-.425-.48-.042-.83-.035-1.14.287-1.345 1.478-1.005 3.003.146 4.625 2.261 2.96 3.466 3.505 5.67 4.261.594.19 1.137.163 1.566.101.478-.076 1.473-.6 1.68-1.188.212-.588.212-1.075.15-1.188-.062-.112-.225-.175-.475-.287z" fill="#fff"/><path d="M21.6 7.374C15.193 1.18 4.59 5.673 4.585 14.411c0 1.747.457 3.45 1.329 4.954L4.501 24.5l5.279-1.377c6.587 3.559 14.717-1.166 14.72-8.707a9.829 9.829 0 0 0-2.912-7.009l.012-.033zm1.235 7.015c-.005 6.36-6.987 10.333-12.51 7.086l-.3-.178-3.124.812.837-3.037-.199-.313c-3.437-5.47.512-12.62 7.021-12.62 2.212 0 4.288.862 5.851 2.425a8.157 8.157 0 0 1 2.424 5.825z" fill="#fff"/></symbol><symbol id="icon-yt" viewBox="0 0 29 29"><path d="M0 5a5 5 0 0 1 5-5h19a5 5 0 0 1 5 5v19a5 5 0 0 1-5 5H5a5 5 0 0 1-5-5V5z" fill="#F00"/><path d="M23.102 9.947l.022.147a2.282 2.282 0 0 0-1.55-1.584l-.016-.004c-1.404-.381-7.05-.381-7.05-.381s-5.633-.007-7.05.381c-.76.22-1.349.816-1.563 1.572l-.003.016c-.525 2.738-.528 6.028.023 8.96l-.023-.148a2.282 2.282 0 0 0 1.55 1.584l.016.003c1.402.382 7.05.382 7.05.382s5.632 0 7.05-.382a2.283 2.283 0 0 0 1.563-1.572l.004-.015c.239-1.274.375-2.74.375-4.236v-.166-.173c0-1.497-.136-2.963-.398-4.384zm-10.396 7.291v-5.47l4.7 2.74-4.7 2.73z" fill="#fff"/></symbol></svg>