<svg xmlns="http://www.w3.org/2000/svg"><defs>
<linearGradient id="paint0_linear" x1="1.94711" y1="27.1107" x2="28.8176" y2="3.85" gradientUnits="userSpaceOnUse">
<stop stop-color="#FFDD55"/>
<stop offset="0.5" stop-color="#FF543E"/>
<stop offset="1" stop-color="#C837AB"/>
</linearGradient>

<linearGradient id="paint0_linear" x1="12.168" y1="23.9037" x2="12.1914" y2="0.289736" gradientUnits="userSpaceOnUse">
<stop stop-color="#5CC3F6"/>
<stop offset="1" stop-color="#376DE9"/>
</linearGradient>

<linearGradient id="paint0_linear" x1="10.8767" y1="1.2093" x2="3.62669" y2="18.125" gradientUnits="userSpaceOnUse">
<stop stop-color="#37AEE2"/>
<stop offset="1" stop-color="#1E96C8"/>
</linearGradient>

<linearGradient id="paint0_linear" x1="14.5" y1="0" x2="14.5" y2="29" gradientUnits="userSpaceOnUse">
<stop stop-color="#7DE777"/>
<stop offset="1" stop-color="#5CC34D"/>
</linearGradient>
</defs><symbol id="icon-back" viewBox="0 0 17 14">
  <path d="M6.70711 0L8.12132 1.41421L3.828 5.707L17 5.70711V7.70711L3.828 7.707L8.12132 12L6.70711 13.4142L0 6.70711L6.70711 0Z" fill="#333333"/>
</symbol><symbol id="icon-burger" viewBox="0 0 19 13">
<path d="M0.5 12C0.5 12.2761 0.723858 12.5 1 12.5H17.966C18.2421 12.5 18.466 12.2761 18.466 12V11C18.466 10.7239 18.2421 10.5 17.966 10.5H1C0.723858 10.5 0.5 10.7239 0.5 11V12ZM0.5 7C0.5 7.27614 0.723858 7.5 1 7.5H18C18.2761 7.5 18.5 7.27614 18.5 7V6C18.5 5.72386 18.2761 5.5 18 5.5H1C0.723858 5.5 0.5 5.72386 0.5 6V7ZM0.5 2C0.5 2.27614 0.723858 2.5 1 2.5H18C18.2761 2.5 18.5 2.27614 18.5 2V1C18.5 0.723858 18.2761 0.5 18 0.5H1C0.723858 0.5 0.5 0.723858 0.5 1V2Z" fill="#212A40"/>
</symbol><symbol id="icon-close" viewBox="0 0 14 14">
<path d="M12 0L13.4142 1.41421L8.121 6.707L13.4142 12L12 13.4142L6.707 8.121L1.41421 13.4142L0 12L5.293 6.707L0 1.41421L1.41421 0L6.707 5.293L12 0Z" fill="#333333"/>
</symbol><symbol id="icon-dislike" viewBox="0 0 32 32">
    <path d="M16.875 26.0391C16.6951 26.6693 16.008 27.1707 15.2387 26.9449C14.616 26.7622 14.0185 26.4649 13.5285 25.9882C13.0333 25.5064 12.6894 24.8812 12.5177 24.1109C12.216 22.7568 12.4873 20.068 13.3188 17.6627H8.71039C7.1934 17.6627 5.86537 16.439 6.01094 14.857C6.31115 11.5946 7.29406 9.12043 8.46385 7.51483C9.04706 6.71436 9.67158 6.10383 10.2674 5.68579C10.8373 5.28592 11.4708 5 12.0603 5H19.4155C20.3605 5 21.1437 5.70839 21.2252 6.62717L22.0665 17.0564C22.1267 17.735 21.7866 18.34 21.2905 18.7029C19.9838 19.6588 18.9739 21.127 18.2336 22.5792C17.4988 24.0205 17.0641 25.3772 16.875 26.0391ZM15.3517 25.2177C15.5952 24.4274 16.036 23.1691 16.7154 21.8362C17.5096 20.2785 18.6647 18.5487 20.2752 17.3706C20.3632 17.3063 20.3788 17.2332 20.3759 17.2004L19.5346 6.77121C19.529 6.70801 19.4765 6.66273 19.4155 6.66273H12.0603C11.9863 6.66273 11.704 6.72286 11.2554 7.03764C10.8327 7.33425 10.336 7.80697 9.84503 8.4809C8.8664 9.82411 7.97678 12.0103 7.70109 15.0063C7.65429 15.5148 8.08515 16 8.71039 16H14.1757C14.965 16 15.4534 16.7746 15.1977 17.4482C14.1647 20.1696 13.948 22.7344 14.1757 23.7562C14.2849 24.2463 14.4842 24.5747 14.7243 24.8084C14.8924 24.972 15.1003 25.108 15.3517 25.2177ZM25.225 18.0612C24.7581 18.101 24.3467 17.7624 24.3061 17.305L23.3364 6.37845C23.2958 5.92103 23.6414 5.51797 24.1082 5.47819C24.5751 5.43842 24.9865 5.77699 25.027 6.23441L25.9968 17.161C26.0374 17.6184 25.6918 18.0214 25.225 18.0612Z"/>
</symbol><symbol id="icon-fb" viewBox="0 0 29 29">
<path d="M0 5C0 2.23858 2.23858 0 5 0H24C26.7614 0 29 2.23858 29 5V24C29 26.7614 26.7614 29 24 29H5C2.23858 29 0 26.7614 0 24V5Z" fill="#1877F2"/>
<path d="M17.3571 8.48875H19.0004V5.62675C18.7169 5.58775 17.7419 5.5 16.6064 5.5C14.2371 5.5 12.6141 6.99025 12.6141 9.72925V12.25H9.99962V15.4495H12.6141V23.5H15.8196V15.4503H18.3284L18.7266 12.2508H15.8189V10.0465C15.8196 9.12175 16.0686 8.48875 17.3571 8.48875Z" fill="white"/>
</symbol><symbol id="icon-inst" viewBox="0 0 29 29">
<path d="M0 5C0 2.23858 2.23858 0 5 0H24C26.7614 0 29 2.23858 29 5V24C29 26.7614 26.7614 29 24 29H5C2.23858 29 0 26.7614 0 24V5Z" fill="url(#paint0_linear)"/>
<path d="M24.4475 10.38C24.4007 9.31727 24.2288 8.58669 23.9827 7.95363C23.7287 7.28165 23.338 6.68003 22.8261 6.1799C22.326 5.67199 21.7204 5.27731 21.0562 5.02733C20.4195 4.78115 19.6927 4.60931 18.6301 4.56245C17.5594 4.51163 17.2196 4.49988 14.5042 4.49988C11.7888 4.49988 11.4489 4.51163 10.3823 4.55848C9.31959 4.60534 8.58901 4.77734 7.9561 5.02336C7.28397 5.27731 6.68235 5.66802 6.18222 6.1799C5.67431 6.68003 5.27979 7.28562 5.02965 7.94981C4.78348 8.58669 4.61163 9.3133 4.56477 10.376C4.51395 11.4466 4.5022 11.7865 4.5022 14.5019C4.5022 17.2172 4.51395 17.5571 4.56081 18.6238C4.60766 19.6865 4.77966 20.417 5.02583 21.0501C5.27979 21.7221 5.67431 22.3237 6.18222 22.8238C6.68235 23.3317 7.28794 23.7264 7.95213 23.9764C8.58901 24.2226 9.31562 24.3944 10.3785 24.4413C11.4449 24.4883 11.785 24.4999 14.5004 24.4999C17.2157 24.4999 17.5556 24.4883 18.6223 24.4413C19.6849 24.3944 20.4155 24.2226 21.0484 23.9764C22.3925 23.4567 23.4552 22.3941 23.9749 21.0501C24.2209 20.4132 24.3929 19.6865 24.4398 18.6238C24.4866 17.5571 24.4984 17.2172 24.4984 14.5019C24.4984 11.7865 24.4944 11.4466 24.4475 10.38ZM22.6465 18.5456C22.6035 19.5224 22.4394 20.0498 22.3027 20.4015C21.9666 21.2728 21.2751 21.9643 20.4038 22.3003C20.0521 22.4371 19.5209 22.6012 18.5479 22.644C17.493 22.691 17.1767 22.7026 14.5081 22.7026C11.8396 22.7026 11.5193 22.691 10.4682 22.644C9.49144 22.6012 8.96399 22.4371 8.61236 22.3003C8.17877 22.1401 7.7841 21.8861 7.46375 21.554C7.13166 21.2297 6.8777 20.839 6.71745 20.4054C6.58071 20.0538 6.41664 19.5224 6.37376 18.5496C6.32675 17.4947 6.31515 17.1782 6.31515 14.5096C6.31515 11.8411 6.32675 11.5208 6.37376 10.4698C6.41664 9.49309 6.58071 8.96564 6.71745 8.61401C6.8777 8.18026 7.13166 7.78575 7.46772 7.46525C7.79188 7.13315 8.18259 6.87919 8.61633 6.7191C8.96796 6.58235 9.49937 6.41829 10.4722 6.37525C11.5271 6.3284 11.8436 6.31664 14.512 6.31664C17.1845 6.31664 17.5008 6.3284 18.5519 6.37525C19.5287 6.41829 20.0561 6.58235 20.4077 6.7191C20.8413 6.87919 21.236 7.13315 21.5564 7.46525C21.8884 7.78956 22.1424 8.18026 22.3027 8.61401C22.4394 8.96564 22.6035 9.4969 22.6465 10.4698C22.6934 11.5247 22.7051 11.8411 22.7051 14.5096C22.7051 17.1782 22.6934 17.4907 22.6465 18.5456Z" fill="white"/>
<path d="M14.5057 9.36401C11.6693 9.36401 9.36792 11.6652 9.36792 14.5018C9.36792 17.3383 11.6693 19.6395 14.5057 19.6395C17.3422 19.6395 19.6434 17.3383 19.6434 14.5018C19.6434 11.6652 17.3422 9.36401 14.5057 9.36401ZM14.5057 17.8345C12.6655 17.8345 11.1729 16.342 11.1729 14.5018C11.1729 12.6615 12.6655 11.169 14.5057 11.169C16.3459 11.169 17.8384 12.6615 17.8384 14.5018C17.8384 16.342 16.3459 17.8345 14.5057 17.8345Z" fill="white"/>
<path d="M21.0467 9.16085C21.0467 9.82322 20.5097 10.3603 19.8471 10.3603C19.1848 10.3603 18.6477 9.82322 18.6477 9.16085C18.6477 8.49834 19.1848 7.96143 19.8471 7.96143C20.5097 7.96143 21.0467 8.49834 21.0467 9.16085Z" fill="white"/>

</symbol><symbol id="icon-like" viewBox="0 0 32 32">
    <path fill-rule="evenodd" clip-rule="evenodd" d="M15.125 5.96087C15.3049 5.33074 15.992 4.82927 16.7613 5.05506C17.384 5.23781 17.9815 5.53508 18.4715 6.01185C18.9667 6.49364 19.3106 7.11878 19.4823 7.88912C19.784 9.24319 19.5127 11.932 18.6812 14.3373H23.2896C24.8066 14.3373 26.1346 15.561 25.9891 17.143C25.6889 20.4054 24.7059 22.8796 23.5361 24.4852C22.9529 25.2856 22.3284 25.8962 21.7326 26.3142C21.1627 26.7141 20.5292 27 19.9397 27H12.5845C11.6395 27 10.8563 26.2916 10.7748 25.3728L9.93353 14.9436C9.8733 14.265 10.2134 13.66 10.7095 13.2971C12.0162 12.3412 13.0261 10.873 13.7664 9.42079C14.5012 7.97946 14.9359 6.62276 15.125 5.96087ZM16.6483 6.7823C16.4048 7.57257 15.964 8.8309 15.2846 10.1638C14.4904 11.7215 13.3353 13.4513 11.7248 14.6294C11.6368 14.6937 11.6212 14.7668 11.6241 14.7996L12.4654 25.2288C12.471 25.292 12.5235 25.3373 12.5845 25.3373H19.9397C20.0137 25.3373 20.296 25.2771 20.7446 24.9624C21.1673 24.6657 21.664 24.193 22.155 23.5191C23.1336 22.1759 24.0232 19.9897 24.2989 16.9937C24.3457 16.4852 23.9148 16 23.2896 16H17.8243C17.035 16 16.5466 15.2254 16.8023 14.5518C17.8353 11.8304 18.052 9.26564 17.8243 8.24385C17.7151 7.75367 17.5158 7.42526 17.2757 7.19165C17.1076 7.02804 16.8997 6.892 16.6483 6.7823ZM6.77504 13.9388C7.24189 13.899 7.65326 14.2376 7.69386 14.695L8.66357 25.6215C8.70416 26.079 8.35862 26.482 7.89176 26.5218C7.42491 26.5616 7.01355 26.223 6.97295 25.7656L6.00324 14.839C5.96264 14.3816 6.30819 13.9786 6.77504 13.9388Z"/>
</symbol><symbol id="icon-mail-ios" viewBox="0 0 24 24">
<path d="M0 5C0 2.23858 2.23858 0 5 0H19C21.7614 0 24 2.23858 24 5V19C24 21.7614 21.7614 24 19 24H5C2.23858 24 0 21.7614 0 19V5Z" fill="url(#paint0_linear)"/>
<path d="M19.7233 7.38934L14.9547 12L19.7233 16.6107C19.8095 16.4354 19.8618 16.2416 19.8618 16.0346V7.96551C19.8618 7.75849 19.8095 7.56468 19.7233 7.38934Z" fill="#F5F5F5"/>
<path d="M18.4793 6.62061H5.5197C5.30697 6.62061 5.10782 6.6715 4.92764 6.75539L11.0224 12.6567C11.5613 13.1811 12.4377 13.1811 12.9766 12.6567L19.0714 6.75539C18.8912 6.6715 18.6921 6.62061 18.4793 6.62061Z" fill="#F5F5F5"/>
<path d="M4.2762 7.38934C4.18999 7.56468 4.1377 7.75849 4.1377 7.96551V16.0346C4.1377 16.2416 4.18999 16.4354 4.2762 16.6107L9.04482 12L4.2762 7.38934Z" fill="#F5F5F5"/>
<path d="M14.3028 12.6337L13.628 13.2904C12.7301 14.1642 11.269 14.1642 10.371 13.2904L9.69627 12.6337L4.92764 17.2444C5.10782 17.3283 5.30697 17.3792 5.5197 17.3792H18.4793C18.6921 17.3792 18.8912 17.3283 19.0714 17.2444L14.3028 12.6337Z" fill="#F5F5F5"/>

</symbol><symbol id="icon-mail" viewBox="0 0 20 14">
<path d="M19.3336 1.27515L13.5714 7.00016L19.3336 12.7252C19.4377 12.5075 19.5009 12.2668 19.5009 12.0098V1.99055C19.5009 1.73351 19.4377 1.49286 19.3336 1.27515Z" fill="#212A40"/>
<path d="M17.8304 0.320557H2.17076C1.91371 0.320557 1.67307 0.383752 1.45535 0.487915L8.81995 7.81541C9.47112 8.46658 10.53 8.46658 11.1812 7.81541L18.5458 0.487915C18.3281 0.383752 18.0875 0.320557 17.8304 0.320557Z" fill="#212A40"/>
<path d="M0.668182 1.27515C0.564019 1.49286 0.500824 1.73351 0.500824 1.99055V12.0098C0.500824 12.2668 0.564019 12.5075 0.668182 12.7252L6.4303 7.00016L0.668182 1.27515Z" fill="#212A40"/>
<path d="M12.7837 7.78687L11.9683 8.60224C10.8833 9.68725 9.11782 9.68725 8.03281 8.60224L7.21747 7.78687L1.45535 13.5119C1.67307 13.616 1.91371 13.6792 2.17076 13.6792H17.8304C18.0875 13.6792 18.3281 13.616 18.5458 13.5119L12.7837 7.78687Z" fill="#212A40"/>
</symbol><symbol id="icon-phone" viewBox="0 0 18 16">
<path fill-rule="evenodd" clip-rule="evenodd" d="M17.5623 12.5052C17.9694 13.2031 17.2133 15.9368 14.6541 15.995C13.0837 16.0532 12.0949 15.5879 11.6296 15.4134C10.5245 15.0644 9.53568 14.4827 8.60506 13.9011C6.97648 12.8542 5.63872 11.6909 4.18463 10.2368C1.45094 7.38678 0.520319 4.88575 0.345828 3.14084C0.171337 1.39593 1.97441 0 3.25401 0C3.83565 0 4.12647 0.407146 4.64994 1.16327C5.28974 2.03573 6.10403 3.25717 6.39485 3.8388C6.68567 4.42044 6.51118 5.17657 5.87138 6.16535C5.63872 6.51433 5.63872 6.97964 5.92954 7.32862C6.39485 7.96842 7.03465 8.60822 7.73261 9.24802C8.48874 9.94598 9.30303 10.5276 10.1173 11.0511C10.4663 11.2837 10.8734 11.2837 11.2224 11.0511L12.0367 10.5276C12.6184 10.1205 13.3745 10.1205 13.9561 10.4113C14.6541 10.7603 15.1776 10.9929 15.4102 11.1093C16.6317 11.7491 17.3878 12.2144 17.5623 12.5052Z"/>
</symbol><symbol id="icon-right" viewBox="0 0 17 14">
<path d="M10.2929 0L8.87868 1.41421L13.172 5.707L0 5.70711V7.70711L13.172 7.707L8.87868 12L10.2929 13.4142L17 6.70711L10.2929 0Z"/>
</symbol><symbol id="icon-share-copy" viewBox="0 0 20 20"><path d="M8.536 1.464a5 5 0 1 0-7.072 7.072L2.88 9.95a5.001 5.001 0 0 0 5.362 1.12l-1.66-1.66a2.993 2.993 0 0 1-2.288-.874L2.879 7.12A3 3 0 0 1 7.12 2.88l1.415 1.414c.628.628.92 1.466.874 2.288l1.66 1.66A5.001 5.001 0 0 0 9.95 2.88L8.536 1.464zM11.464 18.535a5 5 0 1 0 7.071-7.07l-1.414-1.415a5.001 5.001 0 0 0-5.362-1.12l1.66 1.66a2.993 2.993 0 0 1 2.288.874l1.414 1.415a3 3 0 1 1-4.242 4.242l-1.415-1.414a2.992 2.992 0 0 1-.874-2.288l-1.66-1.66a5.001 5.001 0 0 0 1.12 5.362l1.414 1.415z" fill-rule="evenodd"/><path d="M14.707 13.293l-8-8-1.414 1.414 8 8 1.414-1.414z" fill-rule="evenodd"/></symbol><symbol id="icon-share-odnoklassniki" viewBox="0 0 18 18">
	<path fill-rule="evenodd" clip-rule="evenodd" d="M8.977 10c-2.736-.01-4.98-2.274-4.963-5.011A5.011 5.011 0 019.037 0c2.768.007 4.99 2.27 4.976 5.065C14 7.795 11.742 10.009 8.978 10zm2.486-5.004a2.437 2.437 0 00-2.446-2.442 2.44 2.44 0 00-2.452 2.471A2.437 2.437 0 009.03 7.448a2.432 2.432 0 002.433-2.452z"/>
  <path d="M3.874 12.51c.763.59 1.608.958 2.522 1.189l-1.981 2.048c-.231.239-.397.505-.414.853-.024.515.286 1.027.771 1.27.457.23.926.158 1.32-.244.878-.894 1.75-1.793 2.609-2.706.215-.228.332-.277.575-.015.562.608 1.14 1.2 1.716 1.793.282.29.563.578.843.87.222.23.473.396.795.42.507.035 1.024-.3 1.256-.81.211-.467.13-.964-.253-1.366a626.286 626.286 0 00-2.054-2.132c.342-.078.674-.166.916-.26.827-.317 1.571-.772 2.19-1.401.403-.41.407-.926.08-1.454-.286-.463-.784-.657-1.318-.522a2.05 2.05 0 00-.733.376c-2.238 1.49-5.3 1.448-7.528-.068a2.423 2.423 0 00-.343-.201c-.619-.289-1.213-.154-1.568.349-.414.587-.361 1.157.162 1.655.109.103.228.195.348.287l.09.068z"/>
</symbol><symbol id="icon-share-telegram" viewBox="0 0 18 18">
  <path d="M17.95 3.295l-2.73 11.837c-.107.421-.294.694-.562.818-.24.1-.549.05-.923-.148l-4.136-2.83L7.59 14.76c-.134.124-.24.211-.321.26a1.068 1.068 0 01-.522.113l.321-3.909 7.67-6.44c.106-.074.133-.136.08-.185-.027-.075-.107-.1-.241-.075a.76.76 0 00-.362.112L4.74 10.18.645 8.99c-.455-.124-.67-.31-.643-.559.027-.248.308-.471.843-.67l15.941-5.695c.402-.124.723-.074.964.15.24.198.308.558.2 1.079z"/>
</symbol><symbol id="icon-share-vk" viewBox="0 0 24 24">
<path fill-rule="evenodd" clip-rule="evenodd" d="M1.68413 1.68413C0 3.36827 0 6.07885 0 11.5V12.5C0 17.9212 0 20.6318 1.68413 22.3158C3.36827 24 6.07885 24 11.5 24H12.5C17.9212 24 20.6318 24 22.3158 22.3158C24 20.6318 24 17.9212 24 12.5V11.5C24 6.07885 24 3.36827 22.3158 1.68413C20.6318 0 17.9212 0 12.5 0H11.5C6.07885 0 3.36827 0 1.68413 1.68413ZM4.75012 7.5H6.50052C6.94787 7.5 7.11617 7.69575 7.28392 8.18035C8.14002 10.6735 9.58347 12.8524 10.1769 12.8524C10.3994 12.8524 10.5015 12.75 10.5015 12.185V9.6079C10.4613 8.87434 10.205 8.5571 10.0151 8.32212C9.89786 8.17702 9.80597 8.06328 9.80597 7.90225C9.80597 7.7065 9.97327 7.5 10.2514 7.5H13.002C13.373 7.5 13.5021 7.6983 13.5021 8.1433V11.6102C13.5021 11.981 13.6632 12.1108 13.7744 12.1108C13.997 12.1108 14.1824 11.981 14.5904 11.5731C15.8514 10.1641 16.7415 7.9949 16.7415 7.9949C16.8528 7.7354 17.058 7.5 17.5031 7.5H19.2535C19.7828 7.5 19.8941 7.77245 19.7828 8.1433C19.5603 9.16295 17.4277 12.1664 17.4277 12.1664C17.2422 12.463 17.1681 12.6114 17.4277 12.9451C17.5191 13.0731 17.7142 13.2641 17.9374 13.4827C18.1669 13.7075 18.4262 13.9614 18.6331 14.2058C19.385 15.0515 19.9516 15.7649 20.1095 16.2566C20.2537 16.75 20.0037 17 19.5035 17H17.7531C17.2843 17 17.0482 16.7375 16.5381 16.1701C16.3219 15.9296 16.0564 15.6344 15.7031 15.2811C14.6646 14.28 14.2195 14.1502 13.9599 14.1502C13.6076 14.1502 13.5022 14.25 13.5022 14.75V16.3194C13.5022 16.75 13.3645 17 12.2519 17C10.3974 17 8.35952 15.8744 6.91307 13.7979C4.7434 10.7574 4.14997 8.45845 4.14997 7.9949C4.14997 7.7354 4.25 7.5 4.75012 7.5Z"/>
</symbol><symbol id="icon-share-watsapp" viewBox="0 0 24 24">
	<path fill-rule="evenodd" clip-rule="evenodd" d="M20.406 3.488A11.815 11.815 0 0 0 11.993 0C5.438 0 .103 5.335.1 11.892a11.867 11.867 0 0 0 1.587 5.945L0 24l6.305-1.654a11.878 11.878 0 0 0 5.683 1.448h.005c6.554 0 11.89-5.336 11.892-11.893a11.822 11.822 0 0 0-3.48-8.413Zm-8.413 18.297h-.004a9.872 9.872 0 0 1-5.031-1.378l-.361-.214-3.742.981.999-3.647-.235-.375a9.86 9.86 0 0 1-1.511-5.26c.002-5.45 4.436-9.884 9.889-9.884a9.818 9.818 0 0 1 6.988 2.899 9.823 9.823 0 0 1 2.893 6.993c-.003 5.45-4.437 9.885-9.885 9.885Zm5.422-7.403c-.297-.149-1.758-.867-2.03-.966-.273-.1-.471-.15-.67.149-.197.297-.767.967-.94 1.165-.174.198-.347.223-.644.074-.297-.15-1.255-.463-2.39-1.475-.883-.788-1.48-1.761-1.653-2.059-.173-.297-.018-.458.13-.606.133-.133.297-.347.446-.52.149-.174.198-.298.297-.496.1-.198.05-.372-.024-.52-.075-.15-.669-1.612-.917-2.207-.241-.58-.486-.5-.668-.51-.174-.009-.371-.01-.57-.01-.198 0-.52.074-.792.371-.273.298-1.04 1.017-1.04 2.48 0 1.462 1.064 2.875 1.213 3.073.149.199 2.096 3.2 5.076 4.488.709.306 1.263.489 1.694.626.712.226 1.36.194 1.872.118.57-.086 1.758-.72 2.006-1.413.247-.694.247-1.29.173-1.413-.074-.126-.272-.2-.57-.349Z"/>
</symbol><symbol id="icon-share" viewBox="0 0 32 32">
    <path fill-rule="evenodd" clip-rule="evenodd" d="M14.1539 5.0926C14.4466 4.93767 14.7946 4.97953 15.0495 5.20035L26.6784 15.2726C26.8815 15.4486 27 15.7165 27 16C27 16.2835 26.8815 16.5514 26.6784 16.7274L15.0495 26.7996C14.7946 27.0205 14.4466 27.0623 14.1539 26.9074C13.8612 26.7525 13.6753 26.428 13.6753 26.0723V21.2468C12.9691 21.3704 12.2101 21.6355 11.4294 22.0039C10.3332 22.5213 9.24385 23.2186 8.27061 23.9285C7.29952 24.6368 6.45861 25.3469 5.8602 25.8803C5.56146 26.1466 5.32431 26.3679 5.16287 26.5216C5.08218 26.5984 5.02049 26.6582 4.97955 26.6983L4.93397 26.7431L4.92329 26.7538L4.92105 26.756C4.67318 27.0045 4.31424 27.0696 4.0065 26.9214C3.69871 26.7733 3.5 26.4402 3.5 26.0723H4.34794C3.5 26.0723 3.5 26.0712 3.5 26.0712L3.5 26.0699L3.50001 26.0666L3.50007 26.0568L3.50042 26.0253C3.50081 25.9991 3.50154 25.9624 3.50295 25.9159C3.50575 25.8228 3.51124 25.6902 3.52194 25.5229C3.54334 25.1885 3.58568 24.714 3.66952 24.1374C3.83689 22.9864 4.17151 21.4158 4.843 19.7366C6.14144 16.4895 8.70156 12.844 13.6753 11.0725V5.92772C13.6753 5.57196 13.8612 5.24753 14.1539 5.0926ZM5.43271 23.882C5.97072 23.4254 6.61595 22.9055 7.32991 22.3847C8.35538 21.6367 9.53726 20.8763 10.7577 20.3003C11.9705 19.7279 13.2721 19.3132 14.5232 19.3132C14.9915 19.3132 15.3711 19.7286 15.3711 20.241V24.1546L24.786 16L15.3711 7.84539V11.759C15.3711 12.1732 15.1202 12.5373 14.7561 12.6511C9.96056 14.1501 7.58959 17.4971 6.39669 20.4803C5.89617 21.7319 5.6035 22.921 5.43271 23.882Z"/>
</symbol><symbol id="icon-tg" viewBox="0 0 29 29">
<path d="M0 5C0 2.23858 2.23858 0 5 0H24C26.7614 0 29 2.23858 29 5V24C29 26.7614 26.7614 29 24 29H5C2.23858 29 0 26.7614 0 24V5Z" fill="url(#paint0_linear)"/>
<path d="M5.30414 15.0122C7.03348 14.0596 8.96389 13.2646 10.7676 12.4655C13.8706 11.1566 16.986 9.87048 20.1328 8.67307C20.745 8.46905 21.8451 8.26952 21.953 9.17685C21.8939 10.4612 21.651 11.738 21.4843 13.0148C21.0613 15.8225 20.5723 18.6207 20.0956 21.4192C19.9313 22.3514 18.7635 22.834 18.0163 22.2374C16.2207 21.0245 14.4112 19.8234 12.6384 18.5824C12.0577 17.9923 12.5962 17.1449 13.1149 16.7236C14.5938 15.2661 16.1623 14.0277 17.564 12.4949C17.9421 11.5818 16.8249 12.3513 16.4564 12.5871C14.4317 13.9824 12.4566 15.4628 10.3219 16.6891C9.23147 17.2893 7.96059 16.7763 6.87069 16.4414C5.89345 16.0368 4.46143 15.6292 5.30404 15.0122L5.30414 15.0122Z" fill="white"/>

</symbol><symbol id="icon-vk" viewBox="0 0 29 29">
<path d="M0 5C0 2.23858 2.23858 0 5 0H24C26.7614 0 29 2.23858 29 5V24C29 26.7614 26.7614 29 24 29H5C2.23858 29 0 26.7614 0 24V5Z" fill="#2787F5"/>
<path d="M20.4369 15.271C20.1459 14.9035 20.2291 14.74 20.4369 14.4115C20.4406 14.4078 22.8429 11.0883 23.0904 9.9625L23.0919 9.96175C23.2149 9.5515 23.0919 9.25 22.4971 9.25H20.5291C20.0281 9.25 19.7971 9.50875 19.6734 9.79825C19.6734 9.79825 18.6714 12.1968 17.2539 13.7515C16.7964 14.2008 16.5849 14.3448 16.3351 14.3448C16.2121 14.3448 16.0209 14.2008 16.0209 13.7905V9.96175C16.0209 9.46975 15.8806 9.25 15.4659 9.25H12.3714C12.0571 9.25 11.8704 9.4795 11.8704 9.69325C11.8704 10.1598 12.5791 10.267 12.6526 11.5795V14.4273C12.6526 15.0513 12.5394 15.166 12.2881 15.166C11.6191 15.166 9.99538 12.7578 9.03313 10.0015C8.83888 9.46675 8.64913 9.25075 8.14438 9.25075H6.17563C5.61388 9.25075 5.50063 9.5095 5.50063 9.799C5.50063 10.3105 6.16963 12.8538 8.61163 16.2138C10.2391 18.5073 12.5311 19.75 14.6161 19.75C15.8694 19.75 16.0224 19.474 16.0224 18.9993C16.0224 16.8078 15.9091 16.6008 16.5369 16.6008C16.8279 16.6008 17.3289 16.7448 18.4989 17.851C19.8361 19.1628 20.0559 19.75 20.8044 19.75H22.7724C23.3334 19.75 23.6176 19.474 23.4541 18.9295C23.0799 17.7843 20.5509 15.4285 20.4369 15.271Z" fill="white"/>
</symbol><symbol id="icon-warning" viewBox="0 0 14 14">
<path d="M6.99301 13.9923C3.31198 13.9886 0.330557 11.0023 0.333009 7.32122C0.335464 3.64019 3.32087 0.657772 7.0019 0.658997C10.6829 0.660223 13.6663 3.64463 13.6663 7.32566C13.6641 11.0092 10.6766 13.9938 6.99301 13.9923ZM1.66634 7.44033C1.69789 10.3745 4.09375 12.732 7.02804 12.7163C9.96232 12.7005 12.3327 10.3173 12.3327 7.38299C12.3327 4.44866 9.96232 2.06551 7.02804 2.04966C4.09375 2.03397 1.69789 4.3915 1.66634 7.32566V7.44033ZM7.66634 10.659H6.33301V9.32566H7.66634V10.659ZM7.66634 7.99233H6.33301V3.99233H7.66634V7.99233Z" fill="#202020"/>
</symbol><symbol id="icon-wp" viewBox="0 0 29 29">
<path d="M0 5C0 2.23858 2.23858 0 5 0H24C26.7614 0 29 2.23858 29 5V24C29 26.7614 26.7614 29 24 29H5C2.23858 29 0 26.7614 0 24V5Z" fill="url(#paint0_linear)"/>
<path d="M19.048 16.4598L19.0405 16.5223C17.208 15.609 17.0163 15.4873 16.7797 15.8423C16.6155 16.0881 16.1372 16.6456 15.993 16.8106C15.8472 16.9731 15.7022 16.9856 15.4547 16.8731C15.2047 16.7481 14.4022 16.4856 13.4522 15.6356C12.7123 14.9732 12.2156 14.1607 12.0689 13.9107C11.8248 13.489 12.3356 13.429 12.8006 12.549C12.8839 12.374 12.8414 12.2365 12.7798 12.1124C12.7173 11.9874 12.2198 10.7624 12.0114 10.2741C11.8114 9.78741 11.6056 9.84908 11.4514 9.84908C10.9715 9.80741 10.6206 9.81408 10.3115 10.1357C8.96649 11.614 9.30565 13.139 10.4565 14.7607C12.7181 17.7206 13.9231 18.2656 16.1264 19.0222C16.7213 19.2114 17.2638 19.1847 17.693 19.1231C18.1713 19.0472 19.1655 18.5223 19.373 17.9348C19.5855 17.3473 19.5855 16.8598 19.523 16.7473C19.4613 16.6348 19.298 16.5723 19.048 16.4598Z" fill="white"/>
<path d="M21.6004 7.37448C15.193 1.18042 4.58905 5.67284 4.58488 14.411C4.58488 16.1576 5.04237 17.861 5.91402 19.3651L4.50072 24.5L9.77979 23.1234C16.3672 26.6816 24.497 21.9567 24.5004 14.416C24.5004 11.7694 23.467 9.27861 21.5879 7.40697L21.6004 7.37448ZM22.8354 14.3885C22.8304 20.7492 15.848 24.7217 10.3256 21.4751L10.0256 21.2967L6.90067 22.1092L7.73816 19.0718L7.53899 18.7593C4.10239 13.2885 8.05065 6.13866 14.5605 6.13866C16.7722 6.13866 18.848 7.00115 20.4113 8.56362C21.9737 10.1128 22.8354 12.1886 22.8354 14.3885Z" fill="white"/>

</symbol><symbol id="icon-yt" viewBox="0 0 29 29">
<path d="M0 5C0 2.23858 2.23858 0 5 0H24C26.7614 0 29 2.23858 29 5V24C29 26.7614 26.7614 29 24 29H5C2.23858 29 0 26.7614 0 24V5Z" fill="#FF0000"/>
<path d="M23.1019 9.94676L23.1244 10.0938C22.9069 9.32201 22.3196 8.72651 21.5734 8.50976L21.5576 8.50601C20.1544 8.12501 14.5076 8.12501 14.5076 8.12501C14.5076 8.12501 8.87511 8.11751 7.45761 8.50601C6.69711 8.72651 6.10911 9.32201 5.89536 10.078L5.89161 10.0938C5.36736 12.832 5.36361 16.1223 5.91486 19.054L5.89161 18.9055C6.10911 19.6773 6.69636 20.2728 7.44261 20.4895L7.45836 20.4933C8.86011 20.875 14.5084 20.875 14.5084 20.875C14.5084 20.875 20.1401 20.875 21.5584 20.4933C22.3196 20.2728 22.9076 19.6773 23.1214 18.9213L23.1251 18.9055C23.3636 17.632 23.5001 16.1665 23.5001 14.6695C23.5001 14.6148 23.5001 14.5593 23.4994 14.5038C23.5001 14.4528 23.5001 14.392 23.5001 14.3313C23.5001 12.8335 23.3636 11.368 23.1019 9.94676ZM12.7061 17.2383V11.7685L17.4056 14.5075L12.7061 17.2383Z" fill="white"/>
</symbol></svg>