<svg width="20" height="14" viewBox="0 0 20 14" fill="none" xmlns="http://www.w3.org/2000/svg">
<path d="M19.3336 1.27515L13.5714 7.00016L19.3336 12.7252C19.4377 12.5075 19.5009 12.2668 19.5009 12.0098V1.99055C19.5009 1.73351 19.4377 1.49286 19.3336 1.27515Z" fill="#212A40"/>
<path d="M17.8304 0.320557H2.17076C1.91371 0.320557 1.67307 0.383752 1.45535 0.487915L8.81995 7.81541C9.47112 8.46658 10.53 8.46658 11.1812 7.81541L18.5458 0.487915C18.3281 0.383752 18.0875 0.320557 17.8304 0.320557Z" fill="#212A40"/>
<path d="M0.668182 1.27515C0.564019 1.49286 0.500824 1.73351 0.500824 1.99055V12.0098C0.500824 12.2668 0.564019 12.5075 0.668182 12.7252L6.4303 7.00016L0.668182 1.27515Z" fill="#212A40"/>
<path d="M12.7837 7.78687L11.9683 8.60224C10.8833 9.68725 9.11782 9.68725 8.03281 8.60224L7.21747 7.78687L1.45535 13.5119C1.67307 13.616 1.91371 13.6792 2.17076 13.6792H17.8304C18.0875 13.6792 18.3281 13.616 18.5458 13.5119L12.7837 7.78687Z" fill="#212A40"/>
</svg>
