<svg xmlns="http://www.w3.org/2000/svg" fill="currentColor" viewBox="0 0 20 20" id="icon-share-copy"><path d="M8.536 1.464a5 5 0 1 0-7.072 7.072L2.88 9.95a5.001 5.001 0 0 0 5.362 1.12l-1.66-1.66a2.993 2.993 0 0 1-2.288-.874L2.879 7.12A3 3 0 0 1 7.12 2.88l1.415 1.414c.628.628.92 1.466.874 2.288l1.66 1.66A5.001 5.001 0 0 0 9.95 2.88L8.536 1.464zM11.464 18.535a5 5 0 1 0 7.071-7.07l-1.414-1.415a5.001 5.001 0 0 0-5.362-1.12l1.66 1.66a2.993 2.993 0 0 1 2.288.874l1.414 1.415a3 3 0 1 1-4.242 4.242l-1.415-1.414a2.992 2.992 0 0 1-.874-2.288l-1.66-1.66a5.001 5.001 0 0 0 1.12 5.362l1.414 1.415z" fill-rule="evenodd"></path><path d="M14.707 13.293l-8-8-1.414 1.414 8 8 1.414-1.414z" fill-rule="evenodd"></path></svg>