<svg width="29" height="29" viewBox="0 0 29 29" fill="none" xmlns="http://www.w3.org/2000/svg">
<path d="M0 5C0 2.23858 2.23858 0 5 0H24C26.7614 0 29 2.23858 29 5V24C29 26.7614 26.7614 29 24 29H5C2.23858 29 0 26.7614 0 24V5Z" fill="#FF0000"/>
<path d="M23.1019 9.94676L23.1244 10.0938C22.9069 9.32201 22.3196 8.72651 21.5734 8.50976L21.5576 8.50601C20.1544 8.12501 14.5076 8.12501 14.5076 8.12501C14.5076 8.12501 8.87511 8.11751 7.45761 8.50601C6.69711 8.72651 6.10911 9.32201 5.89536 10.078L5.89161 10.0938C5.36736 12.832 5.36361 16.1223 5.91486 19.054L5.89161 18.9055C6.10911 19.6773 6.69636 20.2728 7.44261 20.4895L7.45836 20.4933C8.86011 20.875 14.5084 20.875 14.5084 20.875C14.5084 20.875 20.1401 20.875 21.5584 20.4933C22.3196 20.2728 22.9076 19.6773 23.1214 18.9213L23.1251 18.9055C23.3636 17.632 23.5001 16.1665 23.5001 14.6695C23.5001 14.6148 23.5001 14.5593 23.4994 14.5038C23.5001 14.4528 23.5001 14.392 23.5001 14.3313C23.5001 12.8335 23.3636 11.368 23.1019 9.94676ZM12.7061 17.2383V11.7685L17.4056 14.5075L12.7061 17.2383Z" fill="white"/>
</svg>
