<svg width="19" height="13" viewBox="0 0 19 13" fill="none" xmlns="http://www.w3.org/2000/svg">
<path d="M0.5 12C0.5 12.2761 0.723858 12.5 1 12.5H17.966C18.2421 12.5 18.466 12.2761 18.466 12V11C18.466 10.7239 18.2421 10.5 17.966 10.5H1C0.723858 10.5 0.5 10.7239 0.5 11V12ZM0.5 7C0.5 7.27614 0.723858 7.5 1 7.5H18C18.2761 7.5 18.5 7.27614 18.5 7V6C18.5 5.72386 18.2761 5.5 18 5.5H1C0.723858 5.5 0.5 5.72386 0.5 6V7ZM0.5 2C0.5 2.27614 0.723858 2.5 1 2.5H18C18.2761 2.5 18.5 2.27614 18.5 2V1C18.5 0.723858 18.2761 0.5 18 0.5H1C0.723858 0.5 0.5 0.723858 0.5 1V2Z" fill="#212A40"/>
</svg>
