<svg width="29" height="29" viewBox="0 0 29 29" fill="none" xmlns="http://www.w3.org/2000/svg">
<path d="M0 5C0 2.23858 2.23858 0 5 0H24C26.7614 0 29 2.23858 29 5V24C29 26.7614 26.7614 29 24 29H5C2.23858 29 0 26.7614 0 24V5Z" fill="#1877F2"/>
<path d="M17.3571 8.48875H19.0004V5.62675C18.7169 5.58775 17.7419 5.5 16.6064 5.5C14.2371 5.5 12.6141 6.99025 12.6141 9.72925V12.25H9.99962V15.4495H12.6141V23.5H15.8196V15.4503H18.3284L18.7266 12.2508H15.8189V10.0465C15.8196 9.12175 16.0686 8.48875 17.3571 8.48875Z" fill="white"/>
</svg>
