<svg width="29" height="29" viewBox="0 0 29 29" fill="none" xmlns="http://www.w3.org/2000/svg">
<path d="M0 5C0 2.23858 2.23858 0 5 0H24C26.7614 0 29 2.23858 29 5V24C29 26.7614 26.7614 29 24 29H5C2.23858 29 0 26.7614 0 24V5Z" fill="url(#paint0_linear)"/>
<path d="M24.4475 10.38C24.4007 9.31727 24.2288 8.58669 23.9827 7.95363C23.7287 7.28165 23.338 6.68003 22.8261 6.1799C22.326 5.67199 21.7204 5.27731 21.0562 5.02733C20.4195 4.78115 19.6927 4.60931 18.6301 4.56245C17.5594 4.51163 17.2196 4.49988 14.5042 4.49988C11.7888 4.49988 11.4489 4.51163 10.3823 4.55848C9.31959 4.60534 8.58901 4.77734 7.9561 5.02336C7.28397 5.27731 6.68235 5.66802 6.18222 6.1799C5.67431 6.68003 5.27979 7.28562 5.02965 7.94981C4.78348 8.58669 4.61163 9.3133 4.56477 10.376C4.51395 11.4466 4.5022 11.7865 4.5022 14.5019C4.5022 17.2172 4.51395 17.5571 4.56081 18.6238C4.60766 19.6865 4.77966 20.417 5.02583 21.0501C5.27979 21.7221 5.67431 22.3237 6.18222 22.8238C6.68235 23.3317 7.28794 23.7264 7.95213 23.9764C8.58901 24.2226 9.31562 24.3944 10.3785 24.4413C11.4449 24.4883 11.785 24.4999 14.5004 24.4999C17.2157 24.4999 17.5556 24.4883 18.6223 24.4413C19.6849 24.3944 20.4155 24.2226 21.0484 23.9764C22.3925 23.4567 23.4552 22.3941 23.9749 21.0501C24.2209 20.4132 24.3929 19.6865 24.4398 18.6238C24.4866 17.5571 24.4984 17.2172 24.4984 14.5019C24.4984 11.7865 24.4944 11.4466 24.4475 10.38ZM22.6465 18.5456C22.6035 19.5224 22.4394 20.0498 22.3027 20.4015C21.9666 21.2728 21.2751 21.9643 20.4038 22.3003C20.0521 22.4371 19.5209 22.6012 18.5479 22.644C17.493 22.691 17.1767 22.7026 14.5081 22.7026C11.8396 22.7026 11.5193 22.691 10.4682 22.644C9.49144 22.6012 8.96399 22.4371 8.61236 22.3003C8.17877 22.1401 7.7841 21.8861 7.46375 21.554C7.13166 21.2297 6.8777 20.839 6.71745 20.4054C6.58071 20.0538 6.41664 19.5224 6.37376 18.5496C6.32675 17.4947 6.31515 17.1782 6.31515 14.5096C6.31515 11.8411 6.32675 11.5208 6.37376 10.4698C6.41664 9.49309 6.58071 8.96564 6.71745 8.61401C6.8777 8.18026 7.13166 7.78575 7.46772 7.46525C7.79188 7.13315 8.18259 6.87919 8.61633 6.7191C8.96796 6.58235 9.49937 6.41829 10.4722 6.37525C11.5271 6.3284 11.8436 6.31664 14.512 6.31664C17.1845 6.31664 17.5008 6.3284 18.5519 6.37525C19.5287 6.41829 20.0561 6.58235 20.4077 6.7191C20.8413 6.87919 21.236 7.13315 21.5564 7.46525C21.8884 7.78956 22.1424 8.18026 22.3027 8.61401C22.4394 8.96564 22.6035 9.4969 22.6465 10.4698C22.6934 11.5247 22.7051 11.8411 22.7051 14.5096C22.7051 17.1782 22.6934 17.4907 22.6465 18.5456Z" fill="white"/>
<path d="M14.5057 9.36401C11.6693 9.36401 9.36792 11.6652 9.36792 14.5018C9.36792 17.3383 11.6693 19.6395 14.5057 19.6395C17.3422 19.6395 19.6434 17.3383 19.6434 14.5018C19.6434 11.6652 17.3422 9.36401 14.5057 9.36401ZM14.5057 17.8345C12.6655 17.8345 11.1729 16.342 11.1729 14.5018C11.1729 12.6615 12.6655 11.169 14.5057 11.169C16.3459 11.169 17.8384 12.6615 17.8384 14.5018C17.8384 16.342 16.3459 17.8345 14.5057 17.8345Z" fill="white"/>
<path d="M21.0467 9.16085C21.0467 9.82322 20.5097 10.3603 19.8471 10.3603C19.1848 10.3603 18.6477 9.82322 18.6477 9.16085C18.6477 8.49834 19.1848 7.96143 19.8471 7.96143C20.5097 7.96143 21.0467 8.49834 21.0467 9.16085Z" fill="white"/>
<defs>
<linearGradient id="paint0_linear" x1="1.94711" y1="27.1107" x2="28.8176" y2="3.85" gradientUnits="userSpaceOnUse">
<stop stop-color="#FFDD55"/>
<stop offset="0.5" stop-color="#FF543E"/>
<stop offset="1" stop-color="#C837AB"/>
</linearGradient>
</defs>
</svg>
