<svg width="29" height="29" viewBox="0 0 29 29" fill="none" xmlns="http://www.w3.org/2000/svg">
<path d="M0 5C0 2.23858 2.23858 0 5 0H24C26.7614 0 29 2.23858 29 5V24C29 26.7614 26.7614 29 24 29H5C2.23858 29 0 26.7614 0 24V5Z" fill="#2787F5"/>
<path d="M20.4369 15.271C20.1459 14.9035 20.2291 14.74 20.4369 14.4115C20.4406 14.4078 22.8429 11.0883 23.0904 9.9625L23.0919 9.96175C23.2149 9.5515 23.0919 9.25 22.4971 9.25H20.5291C20.0281 9.25 19.7971 9.50875 19.6734 9.79825C19.6734 9.79825 18.6714 12.1968 17.2539 13.7515C16.7964 14.2008 16.5849 14.3448 16.3351 14.3448C16.2121 14.3448 16.0209 14.2008 16.0209 13.7905V9.96175C16.0209 9.46975 15.8806 9.25 15.4659 9.25H12.3714C12.0571 9.25 11.8704 9.4795 11.8704 9.69325C11.8704 10.1598 12.5791 10.267 12.6526 11.5795V14.4273C12.6526 15.0513 12.5394 15.166 12.2881 15.166C11.6191 15.166 9.99538 12.7578 9.03313 10.0015C8.83888 9.46675 8.64913 9.25075 8.14438 9.25075H6.17563C5.61388 9.25075 5.50063 9.5095 5.50063 9.799C5.50063 10.3105 6.16963 12.8538 8.61163 16.2138C10.2391 18.5073 12.5311 19.75 14.6161 19.75C15.8694 19.75 16.0224 19.474 16.0224 18.9993C16.0224 16.8078 15.9091 16.6008 16.5369 16.6008C16.8279 16.6008 17.3289 16.7448 18.4989 17.851C19.8361 19.1628 20.0559 19.75 20.8044 19.75H22.7724C23.3334 19.75 23.6176 19.474 23.4541 18.9295C23.0799 17.7843 20.5509 15.4285 20.4369 15.271Z" fill="white"/>
</svg>
