<svg width="29" height="29" viewBox="0 0 29 29" fill="none" xmlns="http://www.w3.org/2000/svg">
<path d="M0 5C0 2.23858 2.23858 0 5 0H24C26.7614 0 29 2.23858 29 5V24C29 26.7614 26.7614 29 24 29H5C2.23858 29 0 26.7614 0 24V5Z" fill="url(#paint0_linear)"/>
<path d="M5.30414 15.0122C7.03348 14.0596 8.96389 13.2646 10.7676 12.4655C13.8706 11.1566 16.986 9.87048 20.1328 8.67307C20.745 8.46905 21.8451 8.26952 21.953 9.17685C21.8939 10.4612 21.651 11.738 21.4843 13.0148C21.0613 15.8225 20.5723 18.6207 20.0956 21.4192C19.9313 22.3514 18.7635 22.834 18.0163 22.2374C16.2207 21.0245 14.4112 19.8234 12.6384 18.5824C12.0577 17.9923 12.5962 17.1449 13.1149 16.7236C14.5938 15.2661 16.1623 14.0277 17.564 12.4949C17.9421 11.5818 16.8249 12.3513 16.4564 12.5871C14.4317 13.9824 12.4566 15.4628 10.3219 16.6891C9.23147 17.2893 7.96059 16.7763 6.87069 16.4414C5.89345 16.0368 4.46143 15.6292 5.30404 15.0122L5.30414 15.0122Z" fill="white"/>
<defs>
<linearGradient id="paint0_linear" x1="10.8767" y1="1.2093" x2="3.62669" y2="18.125" gradientUnits="userSpaceOnUse">
<stop stop-color="#37AEE2"/>
<stop offset="1" stop-color="#1E96C8"/>
</linearGradient>
</defs>
</svg>
