<svg xmlns="http://www.w3.org/2000/svg" id="icon-share-telegram" viewBox="0 0 18 18" width="18" height="18">
  <path d="M17.95 3.295l-2.73 11.837c-.107.421-.294.694-.562.818-.24.1-.549.05-.923-.148l-4.136-2.83L7.59 14.76c-.134.124-.24.211-.321.26a1.068 1.068 0 01-.522.113l.321-3.909 7.67-6.44c.106-.074.133-.136.08-.185-.027-.075-.107-.1-.241-.075a.76.76 0 00-.362.112L4.74 10.18.645 8.99c-.455-.124-.67-.31-.643-.559.027-.248.308-.471.843-.67l15.941-5.695c.402-.124.723-.074.964.15.24.198.308.558.2 1.079z"></path>
</svg>
