<svg xmlns="http://www.w3.org/2000/svg" viewBox="0 0 24 24" fill="currentColor" id="icon-share-vk">
<path fill-rule="evenodd" clip-rule="evenodd" d="M1.68413 1.68413C0 3.36827 0 6.07885 0 11.5V12.5C0 17.9212 0 20.6318 1.68413 22.3158C3.36827 24 6.07885 24 11.5 24H12.5C17.9212 24 20.6318 24 22.3158 22.3158C24 20.6318 24 17.9212 24 12.5V11.5C24 6.07885 24 3.36827 22.3158 1.68413C20.6318 0 17.9212 0 12.5 0H11.5C6.07885 0 3.36827 0 1.68413 1.68413ZM4.75012 7.5H6.50052C6.94787 7.5 7.11617 7.69575 7.28392 8.18035C8.14002 10.6735 9.58347 12.8524 10.1769 12.8524C10.3994 12.8524 10.5015 12.75 10.5015 12.185V9.6079C10.4613 8.87434 10.205 8.5571 10.0151 8.32212C9.89786 8.17702 9.80597 8.06328 9.80597 7.90225C9.80597 7.7065 9.97327 7.5 10.2514 7.5H13.002C13.373 7.5 13.5021 7.6983 13.5021 8.1433V11.6102C13.5021 11.981 13.6632 12.1108 13.7744 12.1108C13.997 12.1108 14.1824 11.981 14.5904 11.5731C15.8514 10.1641 16.7415 7.9949 16.7415 7.9949C16.8528 7.7354 17.058 7.5 17.5031 7.5H19.2535C19.7828 7.5 19.8941 7.77245 19.7828 8.1433C19.5603 9.16295 17.4277 12.1664 17.4277 12.1664C17.2422 12.463 17.1681 12.6114 17.4277 12.9451C17.5191 13.0731 17.7142 13.2641 17.9374 13.4827C18.1669 13.7075 18.4262 13.9614 18.6331 14.2058C19.385 15.0515 19.9516 15.7649 20.1095 16.2566C20.2537 16.75 20.0037 17 19.5035 17H17.7531C17.2843 17 17.0482 16.7375 16.5381 16.1701C16.3219 15.9296 16.0564 15.6344 15.7031 15.2811C14.6646 14.28 14.2195 14.1502 13.9599 14.1502C13.6076 14.1502 13.5022 14.25 13.5022 14.75V16.3194C13.5022 16.75 13.3645 17 12.2519 17C10.3974 17 8.35952 15.8744 6.91307 13.7979C4.7434 10.7574 4.14997 8.45845 4.14997 7.9949C4.14997 7.7354 4.25 7.5 4.75012 7.5Z"></path>
</svg>