<svg width="24" height="24" viewBox="0 0 24 24" fill="none" xmlns="http://www.w3.org/2000/svg">
<path d="M0 5C0 2.23858 2.23858 0 5 0H19C21.7614 0 24 2.23858 24 5V19C24 21.7614 21.7614 24 19 24H5C2.23858 24 0 21.7614 0 19V5Z" fill="url(#paint0_linear)"/>
<path d="M19.7233 7.38934L14.9547 12L19.7233 16.6107C19.8095 16.4354 19.8618 16.2416 19.8618 16.0346V7.96551C19.8618 7.75849 19.8095 7.56468 19.7233 7.38934Z" fill="#F5F5F5"/>
<path d="M18.4793 6.62061H5.5197C5.30697 6.62061 5.10782 6.6715 4.92764 6.75539L11.0224 12.6567C11.5613 13.1811 12.4377 13.1811 12.9766 12.6567L19.0714 6.75539C18.8912 6.6715 18.6921 6.62061 18.4793 6.62061Z" fill="#F5F5F5"/>
<path d="M4.2762 7.38934C4.18999 7.56468 4.1377 7.75849 4.1377 7.96551V16.0346C4.1377 16.2416 4.18999 16.4354 4.2762 16.6107L9.04482 12L4.2762 7.38934Z" fill="#F5F5F5"/>
<path d="M14.3028 12.6337L13.628 13.2904C12.7301 14.1642 11.269 14.1642 10.371 13.2904L9.69627 12.6337L4.92764 17.2444C5.10782 17.3283 5.30697 17.3792 5.5197 17.3792H18.4793C18.6921 17.3792 18.8912 17.3283 19.0714 17.2444L14.3028 12.6337Z" fill="#F5F5F5"/>
<defs>
<linearGradient id="paint0_linear" x1="12.168" y1="23.9037" x2="12.1914" y2="0.289736" gradientUnits="userSpaceOnUse">
<stop stop-color="#5CC3F6"/>
<stop offset="1" stop-color="#376DE9"/>
</linearGradient>
</defs>
</svg>
