<svg xmlns="http://www.w3.org/2000/svg" fill="currentColor" viewBox="0 0 24 24" id="icon-share-watsapp">
	<path fill-rule="evenodd" clip-rule="evenodd" d="M20.406 3.488A11.815 11.815 0 0 0 11.993 0C5.438 0 .103 5.335.1 11.892a11.867 11.867 0 0 0 1.587 5.945L0 24l6.305-1.654a11.878 11.878 0 0 0 5.683 1.448h.005c6.554 0 11.89-5.336 11.892-11.893a11.822 11.822 0 0 0-3.48-8.413Zm-8.413 18.297h-.004a9.872 9.872 0 0 1-5.031-1.378l-.361-.214-3.742.981.999-3.647-.235-.375a9.86 9.86 0 0 1-1.511-5.26c.002-5.45 4.436-9.884 9.889-9.884a9.818 9.818 0 0 1 6.988 2.899 9.823 9.823 0 0 1 2.893 6.993c-.003 5.45-4.437 9.885-9.885 9.885Zm5.422-7.403c-.297-.149-1.758-.867-2.03-.966-.273-.1-.471-.15-.67.149-.197.297-.767.967-.94 1.165-.174.198-.347.223-.644.074-.297-.15-1.255-.463-2.39-1.475-.883-.788-1.48-1.761-1.653-2.059-.173-.297-.018-.458.13-.606.133-.133.297-.347.446-.52.149-.174.198-.298.297-.496.1-.198.05-.372-.024-.52-.075-.15-.669-1.612-.917-2.207-.241-.58-.486-.5-.668-.51-.174-.009-.371-.01-.57-.01-.198 0-.52.074-.792.371-.273.298-1.04 1.017-1.04 2.48 0 1.462 1.064 2.875 1.213 3.073.149.199 2.096 3.2 5.076 4.488.709.306 1.263.489 1.694.626.712.226 1.36.194 1.872.118.57-.086 1.758-.72 2.006-1.413.247-.694.247-1.29.173-1.413-.074-.126-.272-.2-.57-.349Z"></path>
</svg>