<svg width="14" height="14" viewBox="0 0 14 14" fill="none" xmlns="http://www.w3.org/2000/svg">
<path d="M6.99301 13.9923C3.31198 13.9886 0.330557 11.0023 0.333009 7.32122C0.335464 3.64019 3.32087 0.657772 7.0019 0.658997C10.6829 0.660223 13.6663 3.64463 13.6663 7.32566C13.6641 11.0092 10.6766 13.9938 6.99301 13.9923ZM1.66634 7.44033C1.69789 10.3745 4.09375 12.732 7.02804 12.7163C9.96232 12.7005 12.3327 10.3173 12.3327 7.38299C12.3327 4.44866 9.96232 2.06551 7.02804 2.04966C4.09375 2.03397 1.69789 4.3915 1.66634 7.32566V7.44033ZM7.66634 10.659H6.33301V9.32566H7.66634V10.659ZM7.66634 7.99233H6.33301V3.99233H7.66634V7.99233Z" fill="#202020"/>
</svg>
