<svg width="18" height="16" viewBox="0 0 18 16" xmlns="http://www.w3.org/2000/svg">
<path fill-rule="evenodd" clip-rule="evenodd" d="M17.5623 12.5052C17.9694 13.2031 17.2133 15.9368 14.6541 15.995C13.0837 16.0532 12.0949 15.5879 11.6296 15.4134C10.5245 15.0644 9.53568 14.4827 8.60506 13.9011C6.97648 12.8542 5.63872 11.6909 4.18463 10.2368C1.45094 7.38678 0.520319 4.88575 0.345828 3.14084C0.171337 1.39593 1.97441 0 3.25401 0C3.83565 0 4.12647 0.407146 4.64994 1.16327C5.28974 2.03573 6.10403 3.25717 6.39485 3.8388C6.68567 4.42044 6.51118 5.17657 5.87138 6.16535C5.63872 6.51433 5.63872 6.97964 5.92954 7.32862C6.39485 7.96842 7.03465 8.60822 7.73261 9.24802C8.48874 9.94598 9.30303 10.5276 10.1173 11.0511C10.4663 11.2837 10.8734 11.2837 11.2224 11.0511L12.0367 10.5276C12.6184 10.1205 13.3745 10.1205 13.9561 10.4113C14.6541 10.7603 15.1776 10.9929 15.4102 11.1093C16.6317 11.7491 17.3878 12.2144 17.5623 12.5052Z"/>
</svg>
